<svg width="675" height="636" viewBox="0 0 675 636" fill="none" xmlns="http://www.w3.org/2000/svg"><path d="M432.27 587.5h-2.799a9.998 9.998 0 01-6.86-2.725l-85.602-80.723c-4.294-4.048-4.166-10.915.275-14.801l69.281-60.621a10.005 10.005 0 015.656-2.431l29.403-2.744a10.003 10.003 0 018.225 3.117l53.227 56.776a9.998 9.998 0 012.551 8.582l-8.42 47.576a9.999 9.999 0 01-3.997 6.367l-55.09 39.737a9.997 9.997 0 01-5.85 1.89z" fill="#FDC9A6"/><path d="M427.764 513.861l-24.985-29.49a6.001 6.001 0 01-.008-7.748l6.443-7.635c2.104-2.494 5.808-2.86 8.313-.768 18.716 15.635 47.085 42.38 38.973 48.28-11.925 8.655-18.239 17.503-21.266 25.154-1.378 3.483-11.477 7.139-13.944 4.32a3.336 3.336 0 01-.631-3.319l8.178-22.898a5.999 5.999 0 00-1.073-5.896z" fill="url(#paint0_linear)"/><path d="M74.23 579.5h2.489c2.734 0 5.349-1.12 7.236-3.098l73.2-76.75a9.998 9.998 0 00.249-13.533l-57.283-64.661a10.003 10.003 0 00-6.556-3.325l-28.69-2.678a10.002 10.002 0 00-8.224 3.117L3.424 475.348a10 10 0 00-2.551 8.582l8.42 47.576a10 10 0 003.997 6.367l55.09 39.737a9.997 9.997 0 005.85 1.89z" fill="#FDC9A6"/><path d="M78.736 505.861l24.985-29.49a6.001 6.001 0 00.008-7.748l-6.443-7.635c-2.104-2.494-5.808-2.86-8.313-.768C70.257 475.855 41.888 502.6 50 508.5c11.925 8.655 18.239 17.503 21.266 25.154 1.378 3.483 11.477 7.139 13.944 4.32a3.336 3.336 0 00.631-3.319l-8.178-22.898a5.999 5.999 0 011.073-5.896z" fill="url(#paint1_linear)"/><path d="M521.257 285.85c84.181-104.938 116.85-148.071 122.662-156.521M521.257 285.85c57.059 5.151 141.11-6.275 122.662-156.521M521.257 285.85c-42.689-130.914 60.969-148.946 122.662-156.521" stroke="url(#paint2_linear)" stroke-width="24"/><path d="M669 152c0 149.287-94.177 150.368-156.362 138.469C483.307 157.193 599.985 152 669 152z" fill="url(#paint3_linear)"/><path d="M512.638 290.469C619.611 197.868 661.452 159.573 669 152M512.638 290.469C574.823 302.368 669 301.287 669 152M512.638 290.469C483.307 157.193 599.985 152 669 152" stroke="#1C1B36" stroke-width="12"/><path d="M170.093 324.558C199.728 270.138 209.449 208.863 87.79 199c-34.987 80.963-74.988 250.71 71.957 302 18.687-29.59 70.148-73 28.237-100-10.735-3.288-36.92-41.5-17.891-76.442z" fill="url(#paint4_linear)"/><path d="M383.33 356.857c1.575-40.526 11.904-60.564 91.178-55.357 1.128 11.069.832 32.65-6.508 77l-16 45-15.627 23.883-59.982 51.832c-30.594 11.307-96.208 59.255-136.69 37.471-1.658-15.462-25.92-67.279 39.786-82.273 14.04-3.204 101.097-26.902 103.843-97.556z" fill="url(#paint5_linear)"/><path d="M431.265 440.758c-19.999 25.81-45.685 46.503-74.99 60.42-29.308 13.916-61.422 20.669-93.765 19.716-32.345-.953-64.018-9.585-92.48-25.203-28.461-15.621-52.918-37.792-71.408-64.736-18.49-26.942-30.498-57.909-35.061-90.414a212.978 212.978 0 018.788-96.75c10.34-31.11 27.724-59.328 50.755-82.389 23.032-23.062 51.07-40.324 81.866-50.402-39.683 9.896-75.826 30.91-104.305 60.645-28.48 29.734-48.15 66.992-56.765 107.523-8.615 40.531-5.83 82.703 8.038 121.704 13.869 39.004 38.262 73.264 70.397 98.878 32.135 25.613 70.718 41.546 111.347 45.981 40.63 4.435 81.67-2.806 118.439-20.898 36.769-18.093 67.786-46.305 89.513-81.422 21.725-35.117 33.287-75.723 33.366-117.185-2.919 41.766-18.158 81.674-43.735 114.532z" fill="url(#paint6_linear)"/><path d="M406.062 158.55c28.651 22.201 51.623 50.714 67.071 83.246 15.449 32.534 22.945 68.184 21.887 104.088-1.058 35.905-10.641 71.065-27.978 102.66-17.34 31.595-41.952 58.745-71.863 79.27-29.908 20.526-64.284 33.856-100.367 38.921a236.43 236.43 0 01-107.402-9.755c-34.535-11.479-65.86-30.776-91.46-56.343-25.6-25.568-44.762-56.693-55.95-90.879 10.986 44.052 34.313 84.174 67.321 115.788 33.008 31.615 74.368 53.45 119.361 63.014 44.993 9.564 91.808 6.472 135.103-8.923 43.298-15.395 81.33-42.474 109.763-78.146 28.433-35.673 46.12-78.504 51.043-123.606 4.923-45.103-3.115-90.661-23.199-131.478-20.084-40.817-51.402-75.249-90.385-99.368-38.983-24.117-84.059-36.952-130.087-37.039 46.365 3.24 90.666 20.157 127.142 48.55z" fill="url(#paint7_linear)"/><path d="M66.589 560.199a4.784 4.784 0 01.934-4.673l58.395-66.742a27.405 27.405 0 0137.06-3.877 27.404 27.404 0 0110.811 19.068 27.406 27.406 0 01-6.63 20.893l-56.848 64.97c-.402.46-.984.723-1.595.723a44.401 44.401 0 01-42.127-30.362z" fill="url(#paint8_linear)"/><path d="M167.284 607.03c-1.604 1.833-1.972 4.475-.691 6.546a44.41 44.41 0 0049.958 19.334 10.256 10.256 0 005.058-3.298l44.817-53.781a22.75 22.75 0 00-7.004-34.755 22.748 22.748 0 00-16.144-1.834 5.287 5.287 0 00-1.639.759l-37.907 25.661a6.036 6.036 0 00-1.152 1.018l-35.296 40.35z" fill="#FDC9A6"/><path d="M167.284 607.03c-1.604 1.833-1.972 4.475-.691 6.546a44.41 44.41 0 0049.958 19.334 10.256 10.256 0 005.058-3.298l44.817-53.781a22.75 22.75 0 00-7.004-34.755 22.748 22.748 0 00-16.144-1.834 5.287 5.287 0 00-1.639.759l-37.907 25.661a6.036 6.036 0 00-1.152 1.018l-35.296 40.35z" fill="url(#paint9_linear)"/><path d="M110.553 593.183a4.712 4.712 0 01.977-4.66l69.343-76.521a27.4 27.4 0 0141.241 36.086l-67.826 74.745a2.171 2.171 0 01-1.608.712 44.41 44.41 0 01-25.965-8.381 44.412 44.412 0 01-16.162-21.981z" fill="url(#paint10_linear)"/><path d="M447.932 561.573a4.781 4.781 0 00-.934-4.673l-58.395-66.742a27.403 27.403 0 00-37.06-3.878 27.405 27.405 0 00-9.675 30.208 27.391 27.391 0 005.496 9.754l56.846 64.97c.403.459.984.723 1.595.723a44.403 44.403 0 0042.127-30.362z" fill="url(#paint11_linear)"/><path d="M347.239 608.404c1.603 1.833 1.972 4.475.69 6.546a44.405 44.405 0 01-49.958 19.334 10.25 10.25 0 01-5.057-3.298l-44.823-53.785a22.75 22.75 0 017.004-34.755 22.742 22.742 0 0116.144-1.834 5.287 5.287 0 011.639.759l37.912 25.661c.426.289.814.631 1.153 1.019l35.296 40.353z" fill="url(#paint12_linear)"/><path d="M403.968 594.556a4.71 4.71 0 00-.977-4.659l-69.343-76.521a27.4 27.4 0 10-41.239 36.086l67.824 74.745c.412.453.996.712 1.608.712a44.404 44.404 0 0042.127-30.363z" fill="url(#paint13_linear)"/><path d="M464.611 206.514C319.475 109.121 243.502 65.712 223.658 56.181m240.953 150.333c-84.218 12.342-210.959 11.056-240.953-150.333m240.953 150.333C452.02 52.141 305.19 58.074 223.658 56.181" stroke="url(#paint14_linear)" stroke-width="24"/><path d="M263 46c19.859 159.021 136.714 166.758 215 159.021C473.855 53.736 338.12 52.017 263 46z" fill="url(#paint15_linear)"/><path d="M478 205.021C348.827 102.56 280.845 56.315 263 46m215 159.021c-78.286 7.737-195.141 0-215-159.021m215 159.021C473.855 53.736 338.12 52.017 263 46" stroke="#1C1B36" stroke-width="12"/><path d="M266.537 378.398a4.52 4.52 0 01-4.17 2.774h-.021l-33.011-.151a4.52 4.52 0 01-3.895-2.253l-2.748-4.745-3.932-6.793-.038-.069a4.5 4.5 0 01-.027-4.46l7.079-12.595a4.556 4.556 0 013.995-2.302l7.615.089 24.866.289a4.517 4.517 0 014.132 2.808 4.491 4.491 0 01-.99 4.886l-8.733 8.716 8.905 8.883a4.5 4.5 0 01.973 4.923zm93.857-35.716l-2.839 4.925-3.888 6.738a4.533 4.533 0 01-3.864 2.264l-14.49.178h-.057a4.525 4.525 0 01-3.943-2.309l-3.695-6.579-12.24-21.799a4.534 4.534 0 01.373-4.997 4.521 4.521 0 014.743-1.597l11.95 3.203 3.265-12.19a4.518 4.518 0 013.788-3.318 4.527 4.527 0 014.509 2.242l16.397 28.73a4.523 4.523 0 01-.009 4.509zm-81.45-96.613a4.533 4.533 0 00-3.896-2.219h-13.474a4.533 4.533 0 00-3.914 2.25l-16.68 28.632a4.543 4.543 0 00.312 5.041 4.527 4.527 0 004.774 1.629l12.198-3.274 3.206 11.982a4.535 4.535 0 004.378 3.364 4.53 4.53 0 003.896-2.224l16.614-28.054a4.544 4.544 0 00-.001-4.632l-7.413-12.495z" fill="#34BC77"/><path d="M262.545 327.034a4.55 4.55 0 01-5.039.329l-6.411-3.69-13.478 23.971-14.765 26.255-3.952-6.825-.038-.07-14.253-24.627a4.515 4.515 0 010-4.529l17.779-30.709-6.46-3.72a4.528 4.528 0 01-2.231-4.515 4.534 4.534 0 013.327-3.784l32.793-8.763a4.544 4.544 0 015.561 3.2l8.786 32.712a4.525 4.525 0 01-1.619 4.765zm95.033 20.564l-3.901 6.734-14.247 24.6a4.543 4.543 0 01-3.931 2.262h-.003l-35.535-.006v7.436a4.528 4.528 0 01-4.538 4.526 4.549 4.549 0 01-3.212-1.327l-23.995-23.922a4.511 4.511 0 010-6.398l23.995-23.924a4.553 4.553 0 014.948-.982 4.528 4.528 0 012.802 4.182v7.379l27.581-.268 30.036-.292zm-19.406-69.314l-8.783 32.786a4.544 4.544 0 01-5.56 3.211l-32.783-8.786a4.542 4.542 0 01-1.096-8.319l6.411-3.702-18.15-30.558-11.325-19.066h36.475c1.622 0 3.123.866 3.935 2.27l8.359 14.49 9.403 16.297 6.458-3.73a4.538 4.538 0 016.656 5.107z" fill="#5DE674"/><path d="M327.259 347.89l-27.448.268v-7.379a4.529 4.529 0 00-2.789-4.182 4.514 4.514 0 00-4.924.982l-9.812 9.83v34.585l9.812 9.829a4.515 4.515 0 004.924.983 4.529 4.529 0 002.789-4.182v-7.436l35.364.006h.002a4.516 4.516 0 003.912-2.262l14.179-24.6 3.882-6.734-29.891.292zm9.292-74.383a4.55 4.55 0 00-5.044-.33l-6.468 3.73-9.415-16.297-8.371-14.49a4.555 4.555 0 00-3.94-2.27h-21.027v26.057l14.017 23.567-6.419 3.702a4.547 4.547 0 00-2.234 4.526 4.543 4.543 0 003.332 3.793l32.827 8.786a4.548 4.548 0 005.567-3.211l8.796-32.786a4.537 4.537 0 00-1.621-4.777z" fill="#7BF0BB"/><defs><linearGradient id="paint0_linear" x1="428.712" y1="464.5" x2="428.712" y2="560.5" gradientUnits="userSpaceOnUse"><stop stop-color="#FAC199"/><stop offset="1" stop-color="#F6BB92"/></linearGradient><linearGradient id="paint1_linear" x1="77.788" y1="456.5" x2="77.788" y2="552.5" gradientUnits="userSpaceOnUse"><stop stop-color="#FEC096"/><stop offset="1" stop-color="#F6BB92"/></linearGradient><linearGradient id="paint2_linear" x1="637.907" y1="128.161" x2="490.458" y2="225.611" gradientUnits="userSpaceOnUse"><stop stop-color="#5E62F4"/><stop offset="1" stop-color="#52D1B3"/></linearGradient><linearGradient id="paint3_linear" x1="638.748" y1="118.286" x2="512.099" y2="308.86" gradientUnits="userSpaceOnUse"><stop offset=".079" stop-color="#90F7EC"/><stop offset="1" stop-color="#54E360"/></linearGradient><linearGradient id="paint4_linear" x1="266.623" y1="270.885" x2="216.392" y2="528.326" gradientUnits="userSpaceOnUse"><stop stop-color="#5E62F4"/><stop offset="1" stop-color="#506FE2"/></linearGradient><linearGradient id="paint5_linear" x1="362.561" y1="599.379" x2="276.786" y2="333.505" gradientUnits="userSpaceOnUse"><stop stop-color="#63ABED"/><stop offset=".542" stop-color="#5E62F4"/></linearGradient><linearGradient id="paint6_linear" x1="233.992" y1="111" x2="441.874" y2="608.293" gradientUnits="userSpaceOnUse"><stop stop-color="#6380ED"/><stop offset="1" stop-color="#506FE2"/></linearGradient><linearGradient id="paint7_linear" x1="40" y1="594" x2="524" y2="110" gradientUnits="userSpaceOnUse"><stop stop-color="#54E360"/><stop offset="1" stop-color="#32CCBC"/></linearGradient><linearGradient id="paint8_linear" x1="117.5" y1="539.5" x2="141.5" y2="565" gradientUnits="userSpaceOnUse"><stop stop-color="#FDC9A6"/><stop offset="1" stop-color="#F8AF7C"/></linearGradient><linearGradient id="paint9_linear" x1="224.5" y1="576.5" x2="244" y2="603.5" gradientUnits="userSpaceOnUse"><stop stop-color="#FDC9A6"/><stop offset="1" stop-color="#F8B587"/></linearGradient><linearGradient id="paint10_linear" x1="175.5" y1="563" x2="195.5" y2="585.5" gradientUnits="userSpaceOnUse"><stop stop-color="#FDC9A6"/><stop offset="1" stop-color="#F2B386"/></linearGradient><linearGradient id="paint11_linear" x1="405.5" y1="530" x2="369" y2="575.5" gradientUnits="userSpaceOnUse"><stop stop-color="#FDC9A6"/><stop offset="1" stop-color="#EFA978"/></linearGradient><linearGradient id="paint12_linear" x1="310" y1="592" x2="279.5" y2="618" gradientUnits="userSpaceOnUse"><stop stop-color="#FDC9A6"/><stop offset="1" stop-color="#F5B486"/></linearGradient><linearGradient id="paint13_linear" x1="366" y1="559" x2="315" y2="604" gradientUnits="userSpaceOnUse"><stop stop-color="#FDC9A6"/><stop offset="1" stop-color="#F0AF82"/></linearGradient><linearGradient id="paint14_linear" x1="473.983" y1="207.456" x2="241.008" y2="103.919" gradientUnits="userSpaceOnUse"><stop stop-color="#53D9B2"/><stop offset="1" stop-color="#5E62F4"/></linearGradient><linearGradient id="paint15_linear" x1="263" y1="46" x2="417.493" y2="252.31" gradientUnits="userSpaceOnUse"><stop stop-color="#90F7EC"/><stop offset="1" stop-color="#54E360"/></linearGradient></defs></svg>