<svg viewBox="0 0 540 544" fill="none" xmlns="http://www.w3.org/2000/svg"><path d="M1 272c0 148.565 120.435 269 269 269V3C121.435 3 1 123.435 1 272z" fill="#6ECCD2"/><path d="M539 272c0 148.565-120.435 269-269 269V3c148.565 0 269 120.435 269 269z" fill="#628E91"/><g filter="url(#filter0_d)"><path d="M181.691 202.248c38.347-56-21.999-126.832-56.965-155.248C36.501 86.505-83.68 300.663 84.435 467c37.05-20.099 105.453-74.158 68.774-124.059-18.062-24.951-19.452-70.693 28.482-140.693z" fill="url(#paint0_linear)"/></g><g filter="url(#filter1_d)"><path d="M238.744 410.002c-42.37 6.442-90.064 57.059-109.744 90.786 29.867 20.79 86.128 40.888 141 40.195V412.416c-7.788-3.271-17.92-4.441-31.256-2.414z" fill="url(#paint1_linear)"/></g><path d="M396.544 453.385c-26.968-12.516-63.618 31.291-85.746 30.596-18.081-.568-6.151-57.316-40.798-71.981v129c51.171 0 102.342-13.907 147.289-44.503 2.075-9.735.83-33.098-20.745-43.112z" fill="#3D585B"/><path d="M390.968 109.315c-6.101-59.36 28.887-55.245 47.143-45.768 69.328 45.768 160.841 210.118 50.61 365.453-16.408-2.774-50.61-22.052-50.61-74.2 0-25.658-54.075-50.623-54.075-117.888-1.387-23.578 38.13-20.804 35.357-59.638-2.773-38.833-25.651-31.899-28.425-67.959z" fill="#466265"/><g filter="url(#filter2_d)"><path d="M249.31 70.685C234.138 74.87 203.103 72.08 190 16.291c21.686-9.437 51.02-13.767 80-13.25v56.732c-8.595 5.32-15.996 9.618-20.69 10.912z" fill="url(#paint2_linear)"/></g><path d="M371.542 23.65c11.887 7.785-22.104 6.884-42.827 6.884C314.403 30.534 289.219 47.28 270 59V3c42.136 0 86.988 11.12 101.542 20.65z" fill="#3D585B"/><path d="M487 208c-7.879-9.379-23.636-30.717-23.636-41.034m0 0c0-10.318 5.909-22.276 0-26.966m0 26.966c-1.97-3.127-7.091-9.614-11.819-10.552m11.819 10.552c-4.334 2.344-13.473 6.331-15.364 3.517m23.161 193.386c-.696-5.679-2.129-14.395-4.229-22.787m-9.678-22.467c-7.55-7.032-20.33-10.861-19.732-18.379m19.732 18.379c-.944-3.571-2.199-11.738.339-15.835m-.339 15.835c4.671-1.571 13.821-5.538 13.052-8.839m-13.052 8.839c4.023 3.747 7.284 12.896 9.678 22.467m0 0c9.371-4.193 1.733-11.588 6.606-16.697" stroke="#3E585A" stroke-width="6"/><path d="M329.12 513.73c6.307-5.164 15.103-10.661 16.421-17.433m0 0c1.318-6.771-.985-15.365 3.445-17.699m-3.445 17.699c1.677-1.803 28.335-4.748 30.445-19.3m-30.445 19.3c2.51 2.086 7.927 5.854 9.512 4.245M274.038 40.84c4.704-3.913 11.261-8.083 12.257-13.2m0 0c.995-5.116-.699-11.6 2.602-13.373m-2.602 13.373c1.251-1.366 21.092-3.65 22.694-14.642M286.295 27.64c1.863 1.57 5.884 4.402 7.067 3.184" stroke="#334B4E" stroke-width="6"/><path d="M424 304H124.324a8.324 8.324 0 00-8.324 8.324v12.352a8.324 8.324 0 008.324 8.324h291.352a8.324 8.324 0 008.324-8.324V304z" fill="#38374E"/><rect x="124" y="279" width="222" height="25" rx="8" fill="#484761"/><path d="M342 186h56.121L420 260.335V300h-78V186z" fill="#FE5F55" stroke="#F34B41" stroke-width="8"/><path d="M365 215h20a5 5 0 015 5v20.8a4.2 4.2 0 01-4.2 4.2H365a5 5 0 01-5-5v-20a5 5 0 015-5z" fill="#fff" stroke="#fff" stroke-width="6" stroke-linecap="round"/><path d="M190.046 96.945c70.618 25.748 54.724 71.007 38.263 98.717-68.154-8.948-50.286-65.686-38.263-98.717z" fill="#31CA6E"/><path d="M228.309 195.662c-25.17-67.168-35.996-93.798-38.263-98.717m38.263 98.717c16.461-27.71 32.355-72.969-38.263-98.717m38.263 98.717c-68.154-8.948-50.286-65.686-38.263-98.717" stroke="#fff" stroke-width="8"/><path d="M128 197.154h157.086c4.277 0 7.755-3.378 8.303-7.62C295.971 169.545 304.581 157 310.766 157h32.272a7.962 7.962 0 110 15.923h-12.479a8 8 0 00-8 8V275a8 8 0 01-8 8H128a8 8 0 01-8-8v-69.846a8 8 0 018-8z" fill="#FE5F55" stroke="#F34B41" stroke-width="8"/><rect x="155" y="215" width="18" height="52" rx="4" fill="#E25047" stroke="#E25047" stroke-width="8"/><rect x="268" y="215" width="18" height="52" rx="4" fill="#E25047" stroke="#E25047" stroke-width="8"/><rect x="212" y="215" width="18" height="52" rx="4" fill="#E25047" stroke="#E25047" stroke-width="8"/><circle cx="169.5" cy="332.5" r="32.5" fill="#3F3D5F"/><circle cx="170.5" cy="331.5" r="11.5" stroke="#fff" stroke-width="8"/><circle cx="245.5" cy="332.5" r="32.5" fill="#3F3D5F"/><circle cx="246.5" cy="331.5" r="11.5" stroke="#fff" stroke-width="8"/><circle cx="360.5" cy="332.5" r="32.5" fill="#3F3D5F"/><circle cx="361.5" cy="331.5" r="11.5" stroke="#fff" stroke-width="8"/><path d="M144 155c6.271 39.314 35.126 40.229 54.346 37.635C196.014 155.107 162.559 155.848 144 155z" fill="#31CA6E"/><path d="M198.346 192.635C165.635 168.305 148.486 157.408 144 155m54.346 37.635c-19.22 2.594-48.075 1.679-54.346-37.635m54.346 37.635C196.014 155.107 162.559 155.848 144 155" stroke="#fff" stroke-width="8"/><path d="M122 373h140" stroke="#fff" stroke-width="8" stroke-linecap="round" stroke-linejoin="round" stroke-dasharray="27.75 27.75"/><path d="M280 373h140" stroke="#304749" stroke-width="8" stroke-linecap="round" stroke-linejoin="round" stroke-dasharray="27.75 27.75"/><defs><linearGradient id="paint0_linear" x1="97.289" y1="47" x2="97.289" y2="467" gradientUnits="userSpaceOnUse"><stop stop-color="#27C265"/><stop offset=".463" stop-color="#3AD177"/><stop offset="1" stop-color="#27C265"/></linearGradient><linearGradient id="paint1_linear" x1="199.847" y1="409" x2="199.847" y2="539.643" gradientUnits="userSpaceOnUse"><stop stop-color="#38CF74"/><stop offset="1" stop-color="#27C265"/></linearGradient><linearGradient id="paint2_linear" x1="230" y1="3" x2="230" y2="72" gradientUnits="userSpaceOnUse"><stop stop-color="#27C265"/><stop offset="1" stop-color="#37CE73"/></linearGradient><filter id="filter0_d" x="0" y="44.225" width="205.098" height="431.098" filterUnits="userSpaceOnUse" color-interpolation-filters="sRGB"><feFlood flood-opacity="0" result="BackgroundImageFix"/><feColorMatrix in="SourceAlpha" values="0 0 0 0 0 0 0 0 0 0 0 0 0 0 0 0 0 0 127 0"/><feOffset dx="5.549" dy="2.775"/><feGaussianBlur stdDeviation="2.775"/><feColorMatrix values="0 0 0 0 0.116667 0 0 0 0 0.666667 0 0 0 0 0.336667 0 0 0 0.83 0"/><feBlend in2="BackgroundImageFix" result="effect1_dropShadow"/><feBlend in="SourceGraphic" in2="effect1_dropShadow" result="shape"/></filter><filter id="filter1_d" x="120.676" y="400.676" width="152.098" height="143.098" filterUnits="userSpaceOnUse" color-interpolation-filters="sRGB"><feFlood flood-opacity="0" result="BackgroundImageFix"/><feColorMatrix in="SourceAlpha" values="0 0 0 0 0 0 0 0 0 0 0 0 0 0 0 0 0 0 127 0"/><feOffset dx="-2.775" dy="-2.775"/><feGaussianBlur stdDeviation="2.775"/><feColorMatrix values="0 0 0 0 0.117647 0 0 0 0 0.666667 0 0 0 0 0.337255 0 0 0 0.86 0"/><feBlend in2="BackgroundImageFix" result="effect1_dropShadow"/><feBlend in="SourceGraphic" in2="effect1_dropShadow" result="shape"/></filter><filter id="filter2_d" x="184.451" y=".226" width="91.098" height="80.098" filterUnits="userSpaceOnUse" color-interpolation-filters="sRGB"><feFlood flood-opacity="0" result="BackgroundImageFix"/><feColorMatrix in="SourceAlpha" values="0 0 0 0 0 0 0 0 0 0 0 0 0 0 0 0 0 0 127 0"/><feOffset dy="2.775"/><feGaussianBlur stdDeviation="2.775"/><feColorMatrix values="0 0 0 0 0.117647 0 0 0 0 0.666667 0 0 0 0 0.337255 0 0 0 1 0"/><feBlend in2="BackgroundImageFix" result="effect1_dropShadow"/><feBlend in="SourceGraphic" in2="effect1_dropShadow" result="shape"/></filter></defs></svg>