<svg width="489" height="490" fill="none" xmlns="http://www.w3.org/2000/svg"><path d="M243.9 162l53.5-25.2a6 6 0 013.4-.6l63.5 8.6a6 6 0 015.2 6v45.5a6 6 0 01-4 5.6l-88.8 32.2a6 6 0 01-7.5-3.1L241 170a6 6 0 012.9-8z" fill="url(#paint0_linear)" stroke="#8280B5"/><path d="M328 174c0 4-5.4 9.2-8.3 11.6-1 .9-2.4.9-3.4 0-3-2.4-8.3-7.5-8.3-11.6a10 10 0 1120 0z" stroke="#fff"/><circle cx="318" cy="174" stroke="#fff" stroke-width="1.5" r="3"/><path d="M464.5 227c1.6-.8 3.4-3 3.6-7 0-2.4 1.5-4.8 4-5.3.9-.1 1.9 0 2.7.6 1.8 1.1 4.1 2.8 5.3 4.4 1 1.3.1 2.8-1 3.9-1.4 1.1-2.4 2.4-1.6 2.9 1.2 1 3 2.7 2.7 3.5-.2.6-1 .5-1.6.5-1.4 0-3.2.5-2.8 2.2 0 .6.4 1 .7 1.4l3.8 5a6 6 0 011.3 3.3l.3 5c0 .8 0 1.5-.3 2-1.3 2.4-5.5 5.5-14.6 4.1-3.2-.5-8.9-2.4-11-6.4-1.3-2.3.7-4.5 3-5.7 1.6-.8 3.2-2 4-3.2.6-1 .1-2.2-.4-3.3-.9-2-1.5-4.8.1-6.7.5-.5 1.2-.8 1.8-1.1z" fill="#AFDEF8" stroke="#8280B5"/><g filter="url(#filter0_i)"><path d="M419.6 281.8l-7.7 7.7a5.5 5.5 0 01-9.4-3.4l-.4-6.5c-.3-4.2-4.4-6.2-7.5-3.5-7.3 6.5-16.5 16.3-20.5 17.2-.8.2-1.6 0-2.4-.2-6.8-1.2-23.2-8.9-28.6-11.3-.5-.2-1-.4-1.3-1-1.9-3.2 0-14 1.1-20.8.2-1 .6-2 1.2-2.8l11.5-15c.6-.8 1-1.7 1.2-2.8.5-2.7.7-4.2-2.8-5-.5-.2-.8-.5-.7-1 0-1.6-.8-5.2-10.7-8-1.3-.3-2.4-1-3.2-2l-4.6-5.6a6 6 0 01-.5-7l3.3-5.4c.6-.9.7-2 .3-3l-.5-1.3c-.5-1.2.1-2.5 1.3-3 1.4-.4 2.9.5 3 2a2.1 2.1 0 003.4 1.6c.8-.6 2-.6 2.8 0l.7.6c1.1 1 2.8.3 3-1.1v-.4c.2-1 1.4-1.7 2.5-1.3.7.2 1.3-.3 1.5-1l.8-4.1c.2-1.2-.1-2.3-.8-3.2a27 27 0 00-9.9-8.8c-1.3-.6-2.3-2-2.8-3.3a3 3 0 00-.2-.4c-.3-.6-.8-1.2-.8-2 0-1 .8-1.7 1.8-1.8l1.8-.1c1.8-.1 3.3-1.5 4.2-3.1.7-1.5 1.9-3 3.1-4 .7-.7 1.8-.8 2.6-.3 1 .5 2.1.4 3-.2l4.5-3.8c1-.9 2.6-1.4 3.4-.2.7 1 1.4 3 1.6 6.4 0 .8-.2 1.6-.5 2.4a15 15 0 00-.4 9c.2.8.8 1.4 1.4 1.8 1.5 1 4 2.4 6.8 3.1 1.2.4 2.4 1 3.3 1.8l3.7 3.7c.8.8 1.8 1.4 3 1.6a134.2 134.2 0 015.6 1.7l51 30.3c.6.4.8 1.3.4 2-.3.5-.2 1.2.2 1.6l1.8 2c.7.8.7 2 0 2.9-.7.8-.6 2 0 3 .7 1 1.5 2 1.8 3.2.3 1 0 2-.4 3l-1.5 2.6a4.2 4.2 0 01-6.3 1.3 4.2 4.2 0 00-6.7 4.3l2.4 11a6 6 0 01-1.1 5l-7.4 9.2c-.6.8-.8 1.7-1.2 2.6-.6 1.6-3 1.9-4.2 3z" fill="url(#paint1_linear)"/></g><path d="M419.6 281.8l-7.7 7.7a5.5 5.5 0 01-9.4-3.4l-.4-6.5c-.3-4.2-4.4-6.2-7.5-3.5-7.3 6.5-16.5 16.3-20.5 17.2-.8.2-1.6 0-2.4-.2-6.8-1.2-23.2-8.9-28.6-11.3-.5-.2-1-.4-1.3-1-1.9-3.2 0-14 1.1-20.8.2-1 .6-2 1.2-2.8l11.5-15c.6-.8 1-1.7 1.2-2.8.5-2.7.7-4.2-2.8-5-.5-.2-.8-.5-.7-1 0-1.6-.8-5.2-10.7-8-1.3-.3-2.4-1-3.2-2l-4.6-5.6a6 6 0 01-.5-7l3.3-5.4c.6-.9.7-2 .3-3l-.5-1.3c-.5-1.2.1-2.5 1.3-3 1.4-.4 2.9.5 3 2h0a2.1 2.1 0 003.4 1.6c.8-.6 2-.6 2.8 0l.7.6c1.1 1 2.8.3 3-1.1v-.4c.2-1 1.4-1.7 2.5-1.3.7.2 1.3-.3 1.5-1l.8-4.1c.2-1.2-.1-2.3-.8-3.2a27 27 0 00-9.9-8.8c-1.3-.6-2.3-2-2.8-3.3a3 3 0 00-.2-.4c-.3-.6-.8-1.2-.8-2 0-1 .8-1.7 1.8-1.8l1.8-.1c1.8-.1 3.3-1.5 4.2-3.1.7-1.5 1.9-3 3.1-4 .7-.7 1.8-.8 2.6-.3 1 .5 2.1.4 3-.2l4.5-3.8c1-.9 2.6-1.4 3.4-.2.7 1 1.4 3 1.6 6.4 0 .8-.2 1.6-.5 2.4a15 15 0 00-.4 9c.2.8.8 1.4 1.4 1.8 1.5 1 4 2.4 6.8 3.1 1.2.4 2.4 1 3.3 1.8l3.7 3.7c.8.8 1.8 1.4 3 1.6a134.2 134.2 0 015.6 1.7l51 30.3c.6.4.8 1.3.4 2-.3.5-.2 1.2.2 1.6l1.8 2c.7.8.7 2 0 2.9-.7.8-.6 2 0 3 .7 1 1.5 2 1.8 3.2.3 1 0 2-.4 3l-1.5 2.6a4.2 4.2 0 01-6.3 1.3 4.2 4.2 0 00-6.7 4.3l2.4 11a6 6 0 01-1.1 5l-7.4 9.2c-.6.8-.8 1.7-1.2 2.6-.6 1.6-3 1.9-4.2 3z" stroke="#8280B5"/><path d="M401 227c0 4-5.4 9.2-8.3 11.6-1 .9-2.4.9-3.4 0-3-2.4-8.3-7.5-8.3-11.6a10 10 0 1120 0z" stroke="#fff"/><circle cx="391" cy="227" stroke="#fff" stroke-width="1.5" r="3"/><path d="M154.6 302.3l-1-.5c-2.7-1-7.2-.7-9.4 1.3-.6.6-1.2 1.5-1.5 2.8-.6 2.2-1.8 4.4-2.9 6.4-.7 1.2-1.3 2.8-1.5 4.9-.2 1.6-.9 3-1.8 4.4a16 16 0 00-2.4 5.6c-.5 2.3 1.3 4.2 3.5 4.8 4 1 9 1.8 11.4 1l23.3-10.5a3 3 0 001-.8c.8-.7 1.4-2.1 1-4h0c-.5-1.8-1-3.7-.7-5.6.6-3.6.2-8.2-3.6-9.2-1-.3-2.5-.7-3.9-.7-2.3 0-4.4 1.5-6.7 1.5-1.6 0-3.4-.7-4.8-1.4z" fill="#D6B6D6" stroke="#8280B5"/><path d="M182.6 125.3v5.2c0 .3-.2.6-.5.7-.2.1-.4.4-.4.7v.8c0 .9.8 1.6 1.7 1.6h.7c.6 0 1-.4 1-.9 0-.4.3-.8.7-1h.1c.5 0 .9-.5.9-1v-1.9c0-.6.4-1.1 1-1.2.6-.2 1-.7 1-1.3v-1.3c0-.3-.2-.6-.6-.6a.6.6 0 01-.6-.6v-.5c0-.5-.4-1-1-1l-1.3-.2c-1.5-.1-2.7 1-2.7 2.5zm-37.5 17.3l1-.3a3.3 3.3 0 00-1.5-6.3h-1a3.4 3.4 0 101.5 6.6z" fill="#D6B6D5"/><path d="M179.4 173.2c-.8-2-1.2-4.6.8-6.9l.6-.6.4-.7a6 6 0 001-2.3l.4-1.4a6 6 0 011.8-3l9.9-9.2a6 6 0 012.8-1.4l26.6-5.5a6 6 0 015.6 1.7l28.2 29.6c.7.6 1.1 1.5 1.4 2.4 1.6 4.8 4.8 12 8 11.8a52.2 52.2 0 0117.6-8.2c1.3-.4 2.7-.2 3.8.7 4.6 3.5 7.3 10.7-9.8 18.4-.7.3-1.3.6-1.7 1.1-2.8 3-6.3 8.2-3.5 11.6.4.5 1 .8 1.6 1v.1c2.5 1.2 6.1 4.2 6.1 9.1v16.2a6 6 0 01-2.1 4.6l-44.2 37.3a6 6 0 01-8.9-1.4l-9.4-14.8c-.6-1-1.4-1.7-2.4-2-1.8-.6-4-.7-5 1-.5.7-.4 1.5-.3 2.3.1 1.5.2 3.4 0 5.2-.3 1.4-.5 2.9-.2 4.3l.6 2c.5 2.2-1 4.1-2.2 6-.3.4-.3 1.1-.3 1.7.2 1.8 0 4.1-1.6 4.1l-4.9.3c-1.3.1-2.3.7-3.3 1.6-.4.3-1 .7-1.5.7-.8 0-1.8 0-2.8-.2-2-.5-5-1.2-7.2-1-1.5.2-2.8-.2-4.1-.7-.9-.3-1.8-.8-2.6-1.8-.4-.5-.9-1.2-1.5-1.6-1.3-.7-3-1.5-4.6-1.4-1.8.1-3.6 1-5.2.5-1.2-.3-2.2-.9-2.6-1.7-.2-.4-.2-1-.5-1.4l-.2-.3c-1.1-1.7-2.8-3.2-3-5.2-.2-3.5.1-7.8 2.5-9.3.7-.3 2-1.2 3-2.5.8-1.2.5-2.8.6-4.2 0-.8.3-1.4 1-1.7l.7-.2 1-.7c1-1 1.5-2.4 2.9-2.5 1.8 0 4.5-.6 5.6-2 .9-1.2 2-2 3-1.8 1.3.3 1.6 1.8 1.7 3 0 1.5.1 3 .4 4.2.5 2 2 .5 3-1.3.3-.5.6-1 1-1.3 1.2-.8 2.6.1 3.8.8 1.3.8 3 1.4 5.2 1.2 2.9-.2 4-3.4 3.6-6.2-.3-2.7 0-5.4 1.6-6.6l.8-.4c.9-.4 2-1.4 2.5-3 .1-.9 0-1.7-.4-2.4l-5.2-12.2-.8-1.3c-2.4-2.8-6-6.2-6.9-3.5-.3 1.3.4 2.6 1.3 3.6l2.1 2.5.8 1.1c.5 1.5.1 3.4-3.6 3.6-2.3.2-4.5 1-5.8 2.9l-2.3 3.2a6 6 0 01-3 2.3l-.3.1c-2.3.8-4 3.8-6.3 3.8-1.5-.1-4.6-.7-6.7-2-.6-.3-1-.8-1.3-1.3-1.7-3-3.2-7.8 1.5-8.2.4 0 1 .1 2 .5 2.8 1.3 5.8 1.2 4.5-1.6-.3-.9-1-2.4-.9-3.3.3-3 1.1-6.8 3-8.4 1.1-1 2.3.7 3.8 1.3 1 .4 1.6-1 1.8-2.1.4-2.5 1.6-5.8 3.8-6.4 1-.2 2.9-1 2.5-3l-7.7-23.6a6 6 0 01-.3-1.9v-7.9c0-1.4-.5-2.7-1-3.9z" fill="url(#paint2_linear)" stroke="#8280B5"/><path d="M96.8 199.3c-.8-.4-1.7-.5-2.8-.3-3.1.8-6.4 3.1-9.3 1.6-1.8-.9-3.7-2-5.3-3-3.1-2-8-4.1-11.7-3.1l-3.3.8a6 6 0 01-1.5.3H57c-1.3 0-2.6-.7-3.5-1.8a5 5 0 00-4.2-1.8c-3 0-7-.3-9.7-2.2-.5-.3-.8-.8-1.1-1.3-1.9-3.6-2-9.3 8.3-9.8 1.7-.1 2.7-2.7 2.8-4.4 0-.7.6-1 1.3-1h4.6c.3 0 .6-.2.6-.6 0-.3.3-.6.6-.6h2c1.5 0 2.7-1.4 3-2.9.2-2 1-4.3 3-5.2 1.2-.4 2.4 0 3.4.7l2.9 2c1.4 1 3.3 1.3 5 1 4.5-1 10.3-1.4 10.3 1.9v2.9c0 3 2.4 5.4 5.5 5.4h4.8c.3 0 .6.3.6.7 0 .3.3.6.6.7l4 .3c.6 0 1 .2 1.4.6 1 1.2.8 4.8.2 6.4-.3.7-.5 1.6-.7 2.7-.3.8.5 2.2 5 2 1.6-.2 3.2.3 4.3 1.4 1.2 1.3 3 1.7 4.8 1.8 1.4.1 3.2.5 4.9 1.4 1.3.7 2 2.2 2 3.7 0 5.5-1.2 13.4-6.4 14l-5.7.7c-1 0-1.8.4-2.7.8-.5.2-1 .5-1.7.6a50 50 0 01-13.5.4c-.8 0-1.5-.4-2.1-1l-1.4-1.3c-2.2-2-3.8-6 4-9 1.7-.6 4.3-2.2 3.8-4.2a2 2 0 00-1.2-1.3z" fill="#D6B9D7" stroke="#8280B5"/><path d="M175.7 139.4l-1.6.7c-1.9 1-.9 3.3 1 4.4l2.8 1.6c1 .6 2.4 2.4 1.6 4.8l-.7 1.1-5 6.3a6 6 0 00-1.3 3.7v.2c0 1.5-.6 3-1.7 4l-.3.3c-.9.9-2 1.4-3.2 1.4h-1.4c-.3 0-.7-.2-1-.4-.7-.8-2-.4-2.2.6v.1c-.2.6-.6 1-1.2 1l-5.7 1c-.7.1-1.3-.4-1.3-1.1 0-.7-.6-1.2-1.2-1.2-1.8 0-4.2-.3-5.6-1.2-.6-.5-.8-1.3-.7-2.1.2-2.1 1.4-4.8 5-4.8a7 7 0 003.2-.6l.5-.3c1.7-1 1-2.9-.8-3.8l-3.2-1.6c-.8-.4-1.1-1.3-.7-2.1.3-.7.1-1.5-.4-2l-1-.8a1.4 1.4 0 01.8-2.5h.9a1.3 1.3 0 000-2.5h-.9a1.4 1.4 0 01-.8-2.6l3-2.2c1.9-1.4 4.4-1.5 6.7-.8 1.3.4 2.6.5 3.4.1.4-.2.7-.6.9-1 1-1.8 2.8-4.3 4.9-4.8h1.3c3 .8 7.4 2.7 7.2 5.6 0 .7-.6 1.2-1.3 1.5z" fill="#D6B6D5" stroke="#8280B5"/><path d="M238 223c0 4-5.4 9.2-8.3 11.6-1 .9-2.4.9-3.4 0-3-2.4-8.3-7.5-8.3-11.6a10 10 0 1120 0z" stroke="#fff"/><circle cx="228" cy="223" stroke="#fff" stroke-width="1.5" r="3"/><path d="M238.8 168.5c1.5-3.8 7-6.7 19.1 5.9a3 3 0 003.6.6 3 3 0 001.6-3.2l-5.6-32.8-15.4-50.1a6 6 0 00-2.2-3L219 70.2c-1.8-1.4-4.3-1.5-6.6-1.3-3 .2-6.9-.9-9.9-5.6-.3-.6-.6-1.3-.7-2l-.6-4.3v-2.2c0-1.2 0-2.6-.7-3.8-1.2-2.6-4.2-4.7-4.5-7.6V43c-.4-2-1.8-4.7-4.2-3.2-1.4.9-2.7 1.8-4.2 2l-5.5.6c-.7 0-1.4.2-2 .7l-.7.7c-1.6 2.1-1.4 5.6-1.6 8.3-.1.7 0 1.3.2 2 .5 1.4 1 2 2.1 3 1.7 1.7 5.3 3.1 4.8 5.4-.1.6-.3 1.3-.6 1.9-.6 1.4-1.3 3.1-.4 4.4l.5.5c1.5 1.4 3.2 3 5.2 3.7.5.2 1.1-.2 1.7-.5 2-.8 5.5-1 9.2 3.1 1 1.2 1.4 2.8 1 4.3-1 3-2.8 6.3-5.9 7.3-2.8 1-4.5-2.4-4.7-5.4-.2-3.2-1.8-5.8-6.2-3.9-.8.4-1.7.6-2.5.7-4.6.4-11.5 1.8-13.6 4.6-.7 1-1.1 2.2-2 3-.7.5-1.2 1.2-1.4 2-.3 2.3-.4 5.5.5 8.6 1 3.2-2.1 7.2-1.1 10.3.3.8 1.4.8 2.3.9 2 0 4.2.6 4.1 2.2 0 1-1 1.5-1.6 2.2-1.2 1.1-2.2 2.9-1.2 5l1.3 2.5c1.2 2.3 4 4.6 9.5 1.4l1-.7c3.4-3.2 9.6-6.9 12-.3.4 1 .3 2.3-.1 3.4l-10 26.8a6 6 0 00-.4 2v4.5c0 1.6-.7 3-1.4 4.5-.2.5-.4 1-.4 1.6-.3 2.2 2.2 3.2 4.3 3l4.9-.6c2.2-.3 4-1.9 5.7-3.3v-.1c1.5-1.2 3.6-2.3 6.7-2.6a6 6 0 012.3.4c3.7 1.3 10 2.2 15-.9 1-.6 2-1.1 3.1-1 3 .3 7.2 2.4 9.6 9 1 2.8-.9 5.6-3.6 6.9-5.4 2.5-11.4 6.6-11.4 11.5 0 1 .6 2 1.5 2.7 4 3 12 5.5 20-2 .5-.4.8-.9 1-1.5a51 51 0 00-.2-14c0-.8 0-1.5.2-2z" fill="url(#paint3_linear)" stroke="#8280B5"/><path d="M226 121c0 4-5.4 9.2-8.3 11.6-1 .9-2.4.9-3.4 0-3-2.4-8.3-7.5-8.3-11.6a10 10 0 1120 0z" stroke="#fff"/><circle cx="216" cy="121" stroke="#fff" stroke-width="1.5" r="3"/><path d="M200 35a9.7 9.7 0 01-2.8 6c-.7.8-1.7 1-2.7 1.1l-9 .6c-2.1.2-4.3-.8-5.2-2.9-.3-1-.5-1.8-.3-2.3.1-.5.8-.5 1.2-.6.6 0 1.1-.4 1-1 0-.3-.2-.4-.3-.8 0-1.7 1-3.9-.1-5.2a9.2 9.2 0 00-9.6-3c-1.8.5-3.8.7-5.2-.4-2-1.6-3.3-3.8-1.6-6.4 1.2-2 3.8-1.8 6-1.1 1.5.4 2.8.5 2.8-.7 0-.5-.4-1-.7-1.5l-4.3-5.7c-.8-1-1.3-2.3-1-3.6.3-1 .8-2.1 1.7-2.8 1.1-.9 2.6.3 4 .4 1.1 0 1.5-1.5 2.5-2a13 13 0 015.8-1.3c1.8 0 3.3 1.1 4.4 2.5 2 2.5 4.9 5.1 7.2 4.4 1.3-.4 1.6-2 2.4-3.2.9-1.2 2.7-2.3 6.3-2 4.9.2 12.8 1.8 8 7-.6.7-1.5 1.1-2.4 1.4-2 .6-4.4 1.7-5.7 3.2-1 1-.4 2.5.2 3.8.5 1 .9 2.2 1.2 3.7.3 1.8-.7 3.5-1.8 5a9.1 9.1 0 00-2 6.3v1.2z" fill="#E0ECB5" stroke="#8280B5"/><path d="M293.2 160.6c2.1-.2 5.5-2.9 7-13 .2-1 .7-2 1.3-3l3.2-4a6 6 0 001.3-3.7v-34.2l-.1-1.3L297 62a6 6 0 00-2.7-3.8l-23-14.2a5.8 5.8 0 00-5-.5c-5.7 2.2-14 6.1-16.4 9.5a33.4 33.4 0 01-25 12c-1.2 0-3 .3-4.8.7-3 .8-3.1 4-1.1 6.2 7 8 16.5 20.8 16.9 29.5l-.1 1.2c-.6 3.2-1.4 8.6-1.1 11.8.1 1.8 1.7 2.5 3.4 2.6 2.2.2 4.6.8 5.2 2.3l.3 1.4 3.2 13.3.3 1 5.3 12 8.9 25.1.2.8s0 0 0 0c1.4 2.9 5.2.8 7-1.6 3.8-5 11.1-10.6 23.2-10.8h1.4z" fill="url(#paint4_linear)" stroke="#8280B5"/><path d="M266 80c0 4-5.4 9.2-8.3 11.6-1 .9-2.4.9-3.4 0-3-2.4-8.3-7.5-8.3-11.6a10 10 0 1120 0z" stroke="#fff"/><circle cx="256" cy="80" stroke="#fff" stroke-width="1.5" r="3"/><path d="M454.4 108.5l-1.3.5c-1 .3-1.8 1.3-1.8 2.5 0 1.1-.7 2.1-1.8 2.5l-4.2 1.4c-.9.3-1.3 1.1-1 2 .1.8-.3 1.7-1 2l-.5.1a2 2 0 00-1.3 2.2c.3 2.3.8 5.1 1.5 6.3.4.5 1 .3 1.6 0l3-2a3 3 0 013.7.4 3 3 0 002 .8h4c.7 0 1.4-.4 1.7-1 .2-.4.5-.8 1-1l11.7-4.6c2.6-1 4.2-3.9 2.4-6a9.1 9.1 0 00-6-2.9c-1-.1-2.2-.4-3.4-.9-3-1.1-7.3-3.4-10.3-2.3z" fill="#F4D2AC" stroke="#8280B5"/><path d="M348 153.1l-16-5.1a6 6 0 01-3.6-3.5l-1-2.4-3.3-7a6 6 0 010-5l19-43.2a6 6 0 012.5-2.8l26-15.3a6 6 0 017 .7l42.2 38 1.3 1c2.8 1.7 7.3 5.7 7.3 11.6.5 10 2.1 30.6 4.5 33 1 .8 2.5 4 .5 10-1.4 5.6-2.4 16.7 4 19.5 1 .4 2 .3 3 0 6-1.7 15.7-3 17.7 2 .3.6.3 1.4 0 2-.7 2-2.5 4.5-6.2 4.5-1.3 0-3.8.4-5.6 1.9-1 .9-1.3 2.4-1 3.7.7 3 1.9 6.5 3.4 8.4 1.5 1.7 2.2-.5 2.4-2.7 0-1.6 2.1-1.7 3.5-1 2.4 1 5.8 2.2 9.3 2.2 2.2 0 3.7-2 5-3.6a6 6 0 015.5-2.4c4.8.9 13.1 3.7 12.2 8.3-.2 1.2-1.3 2-2.3 2.5a20 20 0 00-5.9 5c-1.6 2.2-3.9 4.2-6.6 4.5-5.4.5-12.5 1.7-16.4 4.1-1 .6-1.6 1.8-2.3 2.7-1.2 1.7-4 3.4-9 2.6-.4-.1-1-.3-1.4-.6L385 196.2l-1-.4c-6.5-2-18.4-7.6-19.4-14.7v-1.2c1-7.7 1.5-22.2-4-26.2-.6-.6-1.6-.7-2.4-.6l-8 .3a6 6 0 01-2.3-.3z" fill="url(#paint5_linear)" stroke="#8280B5"/><path d="M406 135c0 4-5.4 9.2-8.3 11.6-1 .9-2.4.9-3.4 0-3-2.4-8.3-7.5-8.3-11.6a10 10 0 1120 0z" stroke="#fff"/><circle cx="396" cy="135" stroke="#fff" stroke-width="1.5" r="3"/><path d="M141.4 282.7c4-3.4 13.5-8.1 22.7-4 1 .5 2 .8 3 .8h8.4a6 6 0 003.6-1.1l3.4-2.6a6 6 0 011-.5l7.4-3.5a6 6 0 001.2-.7l6.9-5.6 8.6-6.2a6 6 0 015.3-.9l3 1a6 6 0 013.3 2.4l11.8 17.7 4 5.4c.3.4.7.8 1.1 1l28.5 22.3.8.7 14.4 16.2a6 6 0 011.4 3.2l5.2 37.8c0 .6.2 1.2.5 1.7l6.8 15 .4 1.4 2.8 14.6c.4 2-.3 4-2 5.3a49 49 0 01-30.4 10c-1.3 0-2.6.3-3.7.9-6.2 3.3-17.6 7.8-24.8 4.5l-15.1-8.1c-2.6-1.4-3.5-4.3-4.1-7-.4-1.6-2.2-2.4-3.7-2.7-1.8-.5-4-1.4-6-3.1a5.2 5.2 0 01-1.5-2.6c-1-3.8-3.1-8.8-5.5-8.2-.8.2-1.3 1.1-1.6 2-1.4 3.3-3.9 8.2-6.3 9.7-1 .7-2.1 0-3.2-.5-1.5-1-3.4-1.5-4.5-.1-1.4 1.5-2.1 3.7-4 4.7l-1.1.6a6 6 0 01-6.5-.5L105 353c-1.2-.9-2-2.2-2.4-3.7-1.2-5.5-4-13.7-8-17.8-1.8-1.9-3.6-4.2-2.6-6.5a8 8 0 013.5-4c1.5-.9 3.3-.2 4.8.7 2.3 1.3 4.8 2 4.8-1.6.2-1.3 2.3-3.4 9.4-2.2.7.1 1.5.1 2.1-.2 1.2-.6 3-1.8 5-4.3a8 8 0 013.8-2.4c4.7-1.4 11.1-4.9 11.7-11.5l-.3-1.8c-1-3.9-1.2-10.9 3.8-14.3l1-.6z" fill="url(#paint6_linear)" stroke="#8280B5"/><path d="M223 332c0 4-5.4 9.2-8.3 11.6-1 .9-2.4.9-3.4 0-3-2.4-8.3-7.5-8.3-11.6a10 10 0 1120 0z" stroke="#fff"/><circle cx="213" cy="332" stroke="#fff" stroke-width="1.5" r="3"/><path d="M53.7 483.7c0 3 .2 6.7 1.1 10 .6 2 2.6 3.4 4.7 3.5l119.7 8.3a6 6 0 006.4-6.3l-.4-6.9c-.1-1.6-1.6-2.9-3-3.8-1.6-1-.8-3.7-1-5.6-.2-.7 0-1.3.3-1.8 1.1-1.3 3 .3 4.2 1.4 1 .9 2 1.5 3.1 1.4 1.3-.2 2.4-1 3.6-1.2l.6-.1c.3 0 .7-.1 1-.3 1.8-1 3.2-3.5-.7-8.4-1.6-2-1.2-4.8-.9-7.3v-1.1c-.3-1.5-.2-3.7 1.7-4.6 1.1-.6 2.6-.8 3-2 .3-.5.4-1 .4-1.6 0-3.3-.5-7.1 1.9-9.3l1.9-1.8.3-.3c3-1.6 9 1.4 8.5-2 0-.5-.2-.8-.5-1-.3-.4-.8-.6-1-1l-.4-.7c-.3-1.4 1-3.4.8-4.8-.2-1.3 0-3-.5-4.2a18 18 0 01-.4-1.3c-.7-2.4-3-5.2-5.5-5.6-2.5-.4-4.7-1.3-5.4-3-.7-1.4 1-2.6 1.3-4 .2-1.2-1.4-2.3-7.5-2.3-1 0-2.6-.3-3.7-1.2-2-1.6-5.4-3.4-7.4-5l-.1-.1c-.4-.4-.5-1-.5-1.4 0-.4 0-.9.3-1.4.8-2-.1-4.9-2.2-4.9l-.7-.1c-3-1-7.6-3.2-8.4-5.4-.3-1 .6-1.8 1.5-2.3l1-.7c1.1-.6 2-2 .8-2.6-.6-.3-1.7-.7-3.3-.8-1.5-.1-3-.6-3.7-1.9a8.9 8.9 0 01-1-5.3c.2-2.2 0-4.5-.7-6.5-.4-1-.6-2-.5-3 .3-1.4 1.4-1.6 2.7-2.1 2.5-1 3-5.5 4.8-7.6.5-.5 1-1.2 1.1-1.9.5-2.1-.5-4.6.1-6.7 1-3.2 1.4-6.5 0-6.8-.7-.1-1.3.4-1.9 1h0a27.8 27.8 0 01-6 4.6c-1 .5-1.7-.5-2.4-1.4h0c-.6-1-1.7-2-3.4-1.8-1 0-1.9.2-2.8.4l-1 .3c-2.2 1.1-5 4-6.4 1.8v-.1c-.2-.4-.1-.8-.1-1.2 0-.6-.2-1.4-.9-1.7-.4-.3-.8-.1-1.3 0-1.8.6-4-1.6-6-1.4h-.6c-.9.2-1.6.5-2.3 1-1 .5-2.5 1-4.1 1-2.2 0-3.3-2.2-3.7-4.3-.3-2-1-3.8-2.2-3-2 .9-5.4 2.2-7 1.8-1-.2-.8-1.3-.9-2.1 0-2.8-3.1-5.2-14.7.6-1.5.7-2.2 2.4-2.2 4 0 1.2-1 1.8-2 2.4-.5.3-1 .8-1.5 1.4-.1.3-.3.5-.3.8-.3 1.2-.3 3.2 1.1 4.6.8 1 1.9 2.7 1.4 4.1-.4 1.2-1.4 2.2-1.4 3.5 0 1.4 1 2.6 2.2 3.4a8 8 0 013.3 4.1c.6 1.8-.4 3.5-1.6 4.9-1.8 2-3.4 4.6-2.8 7a4 4 0 001.2 1.7c1.6 1.6 3.4 4.1 2.5 6-.5 1.1-2 1.2-3.2 1.1-5.4-.4-12.8-.1-11.6 3.3.3.6.8 1.1 1.3 1.5 6.5 5 17 13.5 18.5 16.4.5.8-.7.8-1.6.4l-2.2-1.1a6 6 0 00-3.2-.6l-2.4.2c-1 0-2 0-2.6-.7l-1-1.5c-.4-1.3-.5-2.6-1.9-2.9-2.4-.5-5.7 1.3-7.7 0l-3-1.9c-1.5-1-1.7-3-2.1-4.8-.3-1.4-1.3-2.6-3.6-2.6-1-.1-3.1.1-5 1.6-1.5 1.2-3.6 2.4-4.4 4.2-.4.8-.7 1.9-.6 3.3 0 .5-.3 1-.8 1.2-.4.1-.9 0-1.2-.3l-.2-.2-.7-.4h0a2 2 0 01-1.3-1.5c-.4-1.7-1.3-3.9-2.7-4.9-1-.6-2-.1-3.2.2-1 .4-2.1.4-2.6-.4-.3-.5-.3-1-.2-1.6.5-6.2.4-16.9-3.8-18-.5-.2-1-.5-1.3-.9-.3-.5-.9-.7-1.5-.7-1.4.2-3.3.2-4.3-.4-.8-.5-.5-1.6-.1-2.5.7-1.9 1.2-4.5 0-6-.3-.6-.8-1-1.4-1.2-.9-.2-2.4.1-4.6 2a7 7 0 01-5 1.8L12 372.5c-2.6 0-7.6 4-7 19.8 0 .7-.4 1.4-1 1.7l-.3.2c-.4.2-.7.6-.7 1 0 .5-.3 1-.7 1.1l-.3.2c-.6.3-1 1-1 1.6v6.5c0 .6 0 1.2.3 1.7 2 6.7 6.5 18.5 10.2 20.5l1 .4c1.5.9 3.5 2.5 3.6 4.1 0 1.2-.7 2.3-.7 3.5v.7c.1 2.7-.7 6.5.7 8.8l.9 1.2 14.9 12c.4.3.8.7 1 1.2L44 474a6 6 0 002.8 2.1l2.9 1.2c2.6 1 4.1 3.7 4 6.4z" fill="url(#paint7_linear)" stroke="#8280B5"/><path d="M123 435c0 4-5.4 9.2-8.3 11.6-1 .9-2.4.9-3.4 0-3-2.4-8.3-7.5-8.3-11.6a10 10 0 1120 0z" stroke="#fff"/><circle cx="113" cy="435" stroke="#fff" stroke-width="1.5" r="3"/><path d="M349.2 340c-20.3.1-59.6 3.5-60.7-8.1 0-.6 0-1.2-.2-1.7l-2-9.1a6 6 0 01-.1-2.2l9.7-67.4a6 6 0 00-.1-2l-5.4-26.8c-.7-3.7 2.4-6.7 5.7-8.7.5-.3 1-.6 1.2-1 .2-.3.2-.7.3-1 .4-2 1.6-5.1 3.9-5.8.6-.3 1.3 0 2 .1 5.2 1.8 14.4 4 20.5 3 2.2-.4 3.3-2.8 4-5 .4-.9.9-1.8 1.6-2.7.5-.8 1.4-1.3 2.3-1.2 1 0 2.3.4 3.9 1.3 1.8 1 2.5 3 2.5 5-.2 8.3 2 20.3 11.7 20.3 11.4.8 26.1 8.3-3.4 31.6-1.8 1.5-2.8 4-1.7 6 4.7 8.7 19.2 19.1 51.6 10.4 3.5-.5 10.5 2.6 11 18.2 0 1.2-.3 2.3-1 3.3-8.8 12.2-30.3 35.7-55.7 43.3l-1.6.2z" fill="url(#paint8_linear)" stroke="#8280B5"/><path d="M343 292c0 4-5.4 9.2-8.3 11.6-1 .9-2.4.9-3.4 0-3-2.4-8.3-7.5-8.3-11.6a10 10 0 1120 0z" stroke="#fff"/><circle cx="333" cy="292" stroke="#fff" stroke-width="1.5" r="3"/><path d="M300 384c-2.3-.7-6.1-5.5-2.5-19.5l3-11c.4-1 .9-1.9 1.5-2.7 1.7-2 3.7-5.6 4.1-9.7.3-2.4-1.7-4.4-4.1-5.1-5.3-1.6-11.3-4.8-10-9.5l2-11.6c.3-1.4-.2-2.5-1.3-3.4-1.4-.9-.6-2.7.3-4 .3-.6.4-1.1-.2-1.7l-.6-.7c-.5-.7-1-1.7-.8-2.5.3-1 1.5-1.5 2-2.4.6-1 1.1-2 1.4-2.9.3-1.2-1-1.7-2.1-2.4l-.3-.2c-.3-.4.2-1 .5-1.4l1.6-2.8c1-1.6 1-3.5.7-5.3-.6-3-.2-6.5 3.3-7.5 1-.2 2 0 2.9.4 1.3.4 2.9.8 4 .6 1.2 0 1.6-1.3 1.7-2.5l.7-9.6a7 7 0 011.5-3.7c1.5-2 3-4.6 2.5-6.3-.1-.4-.5-.7-.8-1-2.1-2-4.3-6.1-.2-10.2 1-1 2.1-2.3 1.6-3.6l-.4-.6c-1.2-1.7-3.7-2.3-4.7-4.1l-10.8-18c-2-3.4-6.8-4-10.3-2.2-1 .5-2.2 1-3.4 1.2a8.4 8.4 0 00-4.6 2.6l-8.4 10.4-.6.7c-3.6 3.3-9.6 9.6-9.4 12.5 0 .5.4.9.7 1.2 1.7 1.7 3.8 4.7 2 6.5a555.2 555.2 0 00-33.8 28.5c-.6.6-.5 1.4-.2 2.1 6 12.8 21.7 37.4 42 42.8l1 .2c1.7.2 4 1 5 2.6 1 1.9-1.3 3.4-3.2 4.3-2 .8-3.5 2.1-2.2 3.8.8 1 2 1.2 3.2 1.4 1.7.2 3.4.9 4.2 2.3.9 1.7-1.4 3-2.7 4.5-.8.9-.7 2.1 1.7 3.6 1 .7 2.1 1.5 1.6 2.6-.6 1.3-3.2 2.6-10.3 2.4-1.5 0-3 .4-4.1 1.4l-8.8 7a6.7 6.7 0 01-4.3 1.4c-6.1 0-15.1 1.6-15.1 8.6.3 2.3 2.9 6.3 10.7 5.8 1.5-.1 3 .2 4.3 1 3.3 2 8 4.6 10.7 5.1l1.6.4c3.5 1 8.5 3.5 8.3 6.2 0 1-1.1 1.7-2 2.2-4 1.8-8.4 5.2-4.3 8 1 .6 2.4.7 3.6.4l13.3-3c1.8-.4 3.5-1.6 3.3-3.4v-.4c-.6-3.3-3-7-.9-9.5.9-1 1.8-1.9 2.8-2.1 2.1-.7 2.4 2.6 1.9 4.7-.8 3-1.2 7 .2 10.8.3.9.9 1.6 1.6 2.2 6 4.3 17.4 9.5 21.9.1 1.2-3 .1-10.4-13.5-16z" fill="url(#paint9_linear)" stroke="#8280B5"/><path d="M278 279c0 4-5.4 9.2-8.3 11.6-1 .9-2.4.9-3.4 0-3-2.4-8.3-7.5-8.3-11.6a10 10 0 1120 0z" stroke="#fff"/><circle cx="268" cy="279" stroke="#fff" stroke-width="1.5" r="3"/><path d="M270.8 46.8l-1.8-4.3-7.5-20.5c-1-2.6-2-7.8 2.4-9.2.7-.3 1.5-.2 2.3-.1 2 .1 4.8-.5 4.8-4.2a6 6 0 013.7-5.5c1.4-.5 3 .1 4.4.5l1 .2c1.8.3 3.2-1.5 4.8-2.4 1.2-.6 2.8-.8 5 .1.7.4 1.4 1 1.8 1.6 1.5 2.7 2.2 6.5-3.7 6.5-.8 0-1.8.3-2.5.8-1.7 1 1.1 2 2.6 3.4.2.3.3.5.1.9 0 .3-.3.5-.4.9-3.1 6.1-7.4 18-3 21.8.7.6 1.7.7 2.6.7 5.1.2 16.1 2.4 28.1 10 6 3.7 21 10 34 6.3.7-.2 1.3-.3 2-.3 5.2.3 15 2.7 22 10.5 2 2.2 1.5 5.4-.9 7.1a35.6 35.6 0 01-5.8 3.5l-1.5 1c-2.4 2-5.4 5.6-4.6 8.1.5 2 3.6.8 5.5 1.8.4.2.8.7 1.1 1.4l.4 1.2c1.6 3.7 1.4 9.5-9.7 7.2a6 6 0 00-3 .1c-5 1.5-12.7 4.8-13.9 9a29.7 29.7 0 01-.8 13c-.1 1-.7 2-1.4 2.8-3 3.9-8 13-9.4 26.8 0-.8-.2-2-1-2.9-1.4-2-3.9.1-5.7 1.7h0a3 3 0 01-2 .8c-.5 0-1-.3-1.5-.5-2-1.1-5-2.2-5.7.2l-.3 1.3c-1 2.6-3 6-5.5 5.5-1.8-.3-1.3-3.7-3-4l-.3-.1c-1.3 0 .9-3.1-4.2-3.9-1.5-.2-3-.6-3.8-1.8a17 17 0 01-3.1-9.5c0-1.4.9-2.3 1.8-3.4.6-.6.6-1.8.2-2.6-2.6-4.9-6-13.2-3.8-17.2.5-.8 1-1.5 1.4-2.4.9-3 1.4-7.6-1-10.8-1-1.4-2.1-3-2.4-4.7l-4.2-33a6 6 0 00-2.7-4.2l-9.7-6.5a6 6 0 01-2.2-2.7z" fill="url(#paint10_linear)" stroke="#8280B5"/><path d="M334 72c0 4-5.4 9.2-8.3 11.6-1 .9-2.4.9-3.4 0-3-2.4-8.3-7.5-8.3-11.6a10 10 0 1120 0z" stroke="#fff"/><circle cx="324" cy="72" stroke="#fff" stroke-width="1.5" r="3"/><path d="M128.7 70.6h-3.3a2.8 2.8 0 01-2.8-2.8c0-1.3-1-2.4-2.2-2.7l-17.5-3.4a6 6 0 01-3-1.4L98.7 59a6 6 0 01-2-4.5V39.2c0-1.3.6-2.6 1.7-3.5a4.6 4.6 0 001.1-5.7L95 21.6a6 6 0 015.3-8.9h2.1c.9 0 1.7.4 2.2 1 1 1 2.5 1.1 3.7.5l5.4-2.8a6 6 0 016 .2l20 12.3c.6.4 1.3.6 2 .6h.7c1.6 0 2.8 1.3 2.8 2.8 0 .9.4 1.7 1 2.2l3.4 2.8c.6.6.7 1.5.3 2.2h0c-.8 1.1 0 2.6 1.3 2.6.9 0 1.6.7 1.6 1.6v5c.1 4-.9 10.9-5.5 10.7-1.4-.1-2.4-1.2-3-2.5l-2-3.7A6 6 0 00137 45h-.6a6 6 0 00-5.4 3.3l-4 8c-.6 1.3-.6 3 .2 4.2l.5.8c.5.8 1.3 1.3 2.3 1.3 1.5 0 2.7 1.2 2.7 2.7v1.3a4 4 0 01-4 4z" fill="#85CEA0" stroke="#8280B5"/><path d="M132 27c0 4-5.4 9.2-8.3 11.6-1 .9-2.4.9-3.4 0-3-2.4-8.3-7.5-8.3-11.6a10 10 0 1120 0z" stroke="#fff"/><circle cx="122" cy="27" stroke="#fff" stroke-width="1.5" r="3"/><defs><linearGradient id="paint0_linear" x1="343" y1="141" x2="304" y2="191.5" gradientUnits="userSpaceOnUse"><stop stop-color="#FFCAB5"/><stop offset="1" stop-color="#F1B59C"/></linearGradient><linearGradient id="paint1_linear" x1="363.5" y1="210" x2="419" y2="282" gradientUnits="userSpaceOnUse"><stop stop-color="#B1DFF4"/><stop offset="1" stop-color="#95CFEB"/></linearGradient><linearGradient id="paint2_linear" x1="277" y1="202" x2="175" y2="248.5" gradientUnits="userSpaceOnUse"><stop offset="0" stop-color="#E0C6E2"/><stop offset="1" stop-color="#D3B6D5"/></linearGradient><linearGradient id="paint3_linear" x1="187" y1="39" x2="253" y2="169.5" gradientUnits="userSpaceOnUse"><stop stop-color="#FADDE9"/><stop offset="1" stop-color="#FFEAF3"/></linearGradient><linearGradient id="paint4_linear" x1="254.5" y1="92.5" x2="260.8" y2="176" gradientUnits="userSpaceOnUse"><stop stop-color="#E1EDB6"/><stop offset="1" stop-color="#EFFACA"/></linearGradient><linearGradient id="paint5_linear" x1="435.5" y1="134" x2="369.5" y2="172" gradientUnits="userSpaceOnUse"><stop stop-color="#EAC295"/><stop offset="1" stop-color="#F9DAB8"/></linearGradient><linearGradient id="paint6_linear" x1="194" y1="302.5" x2="194.3" y2="420.6" gradientUnits="userSpaceOnUse"><stop stop-color="#96D9AF"/><stop offset="1" stop-color="#85CEA0"/></linearGradient><linearGradient id="paint7_linear" x1="105.6" y1="340.2" x2="105.6" y2="506" gradientUnits="userSpaceOnUse"><stop stop-color="#FBAB8A"/><stop offset=".3" stop-color="#FBB79C"/><stop offset="1" stop-color="#FBAB8A"/></linearGradient><linearGradient id="paint8_linear" x1="340" y1="221.5" x2="346.8" y2="340.5" gradientUnits="userSpaceOnUse"><stop stop-color="#C4DFB6"/><stop offset="1" stop-color="#A9D392"/></linearGradient><linearGradient id="paint9_linear" x1="271" y1="230" x2="270.9" y2="405.3" gradientUnits="userSpaceOnUse"><stop stop-color="#BBD0F5"/><stop offset="1" stop-color="#99B4E3"/></linearGradient><linearGradient id="paint10_linear" x1="311" y1="35" x2="318.6" y2="153.6" gradientUnits="userSpaceOnUse"><stop stop-color="#EFEA88"/><stop offset="1" stop-color="#F4F090"/></linearGradient><filter id="filter0_i" x="332.9" y="162" width="113.8" height="135.9" filterUnits="userSpaceOnUse" color-interpolation-filters="sRGB"><feFlood flood-opacity="0" result="BackgroundImageFix"/><feBlend in="SourceGraphic" in2="BackgroundImageFix" result="shape"/><feColorMatrix in="SourceAlpha" values="0 0 0 0 0 0 0 0 0 0 0 0 0 0 0 0 0 0 127 0" result="hardAlpha"/><feOffset dy="4"/><feGaussianBlur stdDeviation="5"/><feComposite in2="hardAlpha" operator="arithmetic" k2="-1" k3="1"/><feColorMatrix values="0 0 0 0 0.356863 0 0 0 0 0.47451 0 0 0 0 0.909804 0 0 0 0.1 0"/><feBlend in2="shape" result="effect1_innerShadow"/></filter></defs></svg>