<svg width="309" height="309" viewBox="0 0 309 309" fill="none" xmlns="http://www.w3.org/2000/svg"><rect x="181.184" y="35.047" width="48.601" height="215.471" rx="24.3" transform="rotate(38.685 181.184 35.047)" fill="url(#paint0_linear)"/><rect x="184.115" y="122.709" width="48.601" height="104.876" rx="24.3" transform="rotate(38.685 184.115 122.709)" fill="url(#paint1_linear)"/><rect x="92.773" y="58.272" width="48.601" height="132.903" rx="24.3" transform="rotate(38.685 92.773 58.272)" fill="url(#paint2_linear)"/><rect x="254.59" y="125.633" width="48.601" height="104.876" rx="24.3" transform="rotate(38.685 254.59 125.633)" fill="url(#paint3_linear)"/><rect x="155.412" y="297.299" width="48.601" height="85.368" rx="24.3" transform="rotate(-139.139 155.412 297.299)" fill="url(#paint4_linear)"/><defs><linearGradient id="paint0_linear" x1="205.484" y1="35.047" x2="205.484" y2="250.518" gradientUnits="userSpaceOnUse"><stop offset=".281" stop-color="#28274F"/><stop offset="1" stop-color="#1B1A35" stop-opacity="0"/></linearGradient><linearGradient id="paint1_linear" x1="208.416" y1="122.709" x2="208.416" y2="227.585" gradientUnits="userSpaceOnUse"><stop offset=".281" stop-color="#2A2947"/><stop offset="1" stop-color="#1B1A35" stop-opacity="0"/></linearGradient><linearGradient id="paint2_linear" x1="117.074" y1="58.272" x2="117.074" y2="191.176" gradientUnits="userSpaceOnUse"><stop offset=".281" stop-color="#2A2947" stop-opacity=".47"/><stop offset="1" stop-color="#1B1A35" stop-opacity="0"/></linearGradient><linearGradient id="paint3_linear" x1="278.89" y1="125.633" x2="278.89" y2="230.509" gradientUnits="userSpaceOnUse"><stop offset=".281" stop-color="#2A2947"/><stop offset="1" stop-color="#1B1A35" stop-opacity="0"/></linearGradient><linearGradient id="paint4_linear" x1="179.713" y1="297.299" x2="179.713" y2="382.667" gradientUnits="userSpaceOnUse"><stop offset=".281" stop-color="#2A2947"/><stop offset="1" stop-color="#1B1A35" stop-opacity="0"/></linearGradient></defs></svg>