<svg width="21" height="20" viewBox="0 0 21 20" fill="none" xmlns="http://www.w3.org/2000/svg"><path d="M17.2 2.8A9.524 9.524 0 0010.45 0C7.82 0 5.42 1.07 3.7 2.8A9.53 9.53 0 00.9 9.56c0 2.09.68 4.03 1.82 5.6L0 20l6.7-1.68c.31.13.63.26.95.36.89.28 1.82.42 2.8.42a9.53 9.53 0 006.76-2.8 9.5 9.5 0 002.8-6.74A9.58 9.58 0 0017.2 2.8z" fill="#54E360"/><path d="M7.31 12.69c2.51 2.51 5.57 3.53 6.82 2.27l1.36-1.36-2.73-2.73-1.36 1.36-3.63-3.64 1.36-1.36L6.4 4.5 5.04 5.86c-1.26 1.26-.24 4.32 2.27 6.83z" fill="#54E360"/><path d="M7.31 12.69c2.51 2.51 5.57 3.53 6.82 2.27l1.36-1.36-2.73-2.73-1.36 1.36-3.63-3.64 1.36-1.36L6.4 4.5 5.04 5.86c-1.26 1.26-.24 4.32 2.27 6.83z" stroke="#fff" stroke-miterlimit="10" stroke-linecap="round" stroke-linejoin="round"/></svg>