<svg width="16" height="16" viewBox="0 0 16 16" fill="none" xmlns="http://www.w3.org/2000/svg"><path d="M11.954 1.364l1.347.15c.93.103 1.644.847 1.49 1.77-.276 1.657-1.197 4.418-4.142 7.363-2.945 2.945-5.707 3.867-7.364 4.144-.923.154-1.667-.561-1.77-1.49l-.15-1.347a2 2 0 01.995-1.958l.97-.553a1.796 1.796 0 012.16.29c.425.424 1.038.603 1.569.321.458-.244 1.056-.644 1.704-1.292.647-.648 1.048-1.246 1.292-1.704.282-.53.102-1.144-.322-1.568a1.796 1.796 0 01-.29-2.161l.554-.97a2 2 0 011.957-.995z" stroke="#4D6DE3" stroke-linecap="round" stroke-linejoin="round"/></svg>