<svg width="36" height="36" viewBox="0 0 36 36" fill="none" xmlns="http://www.w3.org/2000/svg"><path d="M28.8 7.2A14.286 14.286 0 0018.675 3 14.26 14.26 0 008.55 7.2a14.295 14.295 0 00-4.2 10.14c0 3.135 1.02 6.045 2.73 8.4L3 33l10.05-2.52c.465.195.945.39 1.425.54 1.335.42 2.73.63 4.2.63 3.96 0 7.545-1.605 10.14-4.2 2.595-2.595 4.2-6.165 4.2-10.11A14.37 14.37 0 0028.8 7.2z" stroke="#fff" stroke-width="2" stroke-miterlimit="10" stroke-linecap="round" stroke-linejoin="round"/><path d="M13.965 22.035c3.765 3.765 8.355 5.295 10.23 3.405l2.04-2.04-4.095-4.095-2.04 2.04-5.445-5.46 2.04-2.04L12.6 9.75l-2.04 2.04c-1.89 1.89-.36 6.48 3.405 10.245z" stroke="#fff" stroke-width="2" stroke-miterlimit="10" stroke-linecap="round" stroke-linejoin="round"/></svg>