<svg width="371" height="372" viewBox="0 0 371 372" fill="none" xmlns="http://www.w3.org/2000/svg"><rect x="114.509" y="307.853" width="75.256" height="272.042" rx="37.628" transform="rotate(-134.344 114.509 307.853)" fill="url(#paint0_linear)"/><rect x="209.093" y="338.998" width="75.256" height="146.997" rx="37.628" transform="rotate(-134.344 209.093 338.998)" fill="url(#paint1_linear)"/><rect x="116.507" y="182.053" width="75.256" height="146.997" rx="37.628" transform="rotate(-134.344 116.507 182.053)" fill="url(#paint2_linear)"/><g filter="url(#filter0_d)"><path d="M220.858 51.61c-37.391 0-67.625 24.057-67.625 53.719 0 18.766 12.156 35.284 30.547 44.89l-3.678 21.346a1.463 1.463 0 00.64 1.457c.236.153.511.236.793.236.282-.002.558-.083.794-.238l23.19-15.394a85.077 85.077 0 0015.339 1.456c37.375 0 67.625-24.058 67.625-53.72S258.299 51.61 220.858 51.61z" fill="#54E360"/></g><path d="M237.251 85.188a13.613 13.613 0 00-8.049-6.25c-7.868-2.166-16.593-1.124-20.849 3.539-5.08 3.753-5.937 13.128 1.089 13.128 4.371 0 5.459-8.747 13.921-6.696.754.24 1.433.67 1.973 1.25a4.658 4.658 0 011.111 2.056c1.386 5.143-5.228 8.73-9.896 14.22a5.988 5.988 0 00-1.41 3.077 5.982 5.982 0 00.481 3.351 5.972 5.972 0 005.465 3.492 6.412 6.412 0 003.394-.96 6.462 6.462 0 002.379-2.611c4.172-8.267 17.978-14.88 10.391-27.596zm-16.938 36.772a6.583 6.583 0 00-4.125.475 6.617 6.617 0 00-3.754 6.946 6.612 6.612 0 005.563 5.597 6.584 6.584 0 004.091-.718 6.614 6.614 0 003.338-7.158 6.608 6.608 0 00-5.113-5.142zm-46.748 108.258c0-17.773-19.978-32.18-44.616-32.18-24.639 0-44.617 14.407-44.617 32.18 0 17.774 19.978 32.181 44.617 32.181 3.148.003 6.292-.24 9.402-.727L160.345 269l-4.726-12.988c10.89-5.858 17.946-15.232 17.946-25.794z" fill="#fff"/><path d="M112.006 235.208c2.807 0 5.083-2.017 5.083-4.505 0-2.489-2.276-4.506-5.083-4.506-2.808 0-5.083 2.017-5.083 4.506 0 2.488 2.275 4.505 5.083 4.505zm16.942 0c2.808 0 5.083-2.017 5.083-4.505 0-2.489-2.275-4.506-5.083-4.506-2.807 0-5.083 2.017-5.083 4.506 0 2.488 2.276 4.505 5.083 4.505zm16.943 0c2.808 0 5.083-2.017 5.083-4.505 0-2.489-2.275-4.506-5.083-4.506-2.807 0-5.082 2.017-5.082 4.506 0 2.488 2.275 4.505 5.082 4.505z" fill="#FE5F55"/><defs><linearGradient id="paint0_linear" x1="152.137" y1="307.853" x2="152.137" y2="579.895" gradientUnits="userSpaceOnUse"><stop stop-color="#6382F7"/><stop offset="1" stop-color="#617CE7"/></linearGradient><linearGradient id="paint1_linear" x1="246.721" y1="338.998" x2="246.721" y2="485.995" gradientUnits="userSpaceOnUse"><stop stop-color="#6382F7"/><stop offset="1" stop-color="#617CE7"/></linearGradient><linearGradient id="paint2_linear" x1="154.135" y1="182.053" x2="154.135" y2="329.05" gradientUnits="userSpaceOnUse"><stop stop-color="#6382F7"/><stop offset="1" stop-color="#617CE7"/></linearGradient><filter id="filter0_d" x="133.233" y="36.609" width="175.249" height="161.648" filterUnits="userSpaceOnUse" color-interpolation-filters="sRGB"><feFlood flood-opacity="0" result="BackgroundImageFix"/><feColorMatrix in="SourceAlpha" values="0 0 0 0 0 0 0 0 0 0 0 0 0 0 0 0 0 0 127 0"/><feOffset dy="5"/><feGaussianBlur stdDeviation="10"/><feColorMatrix values="0 0 0 0 1 0 0 0 0 1 0 0 0 0 1 0 0 0 0.06 0"/><feBlend in2="BackgroundImageFix" result="effect1_dropShadow"/><feBlend in="SourceGraphic" in2="effect1_dropShadow" result="shape"/></filter></defs></svg>