<?xml version="1.0" encoding="utf-8"?><svg xmlns="http://www.w3.org/2000/svg" xmlns:xlink="http://www.w3.org/1999/xlink"><symbol fill="none" viewBox="0 0 22 12" id="arrow-down" xmlns="http://www.w3.org/2000/svg"><path d="M20.333 1l-9.284 9.284L1.765 1" stroke="currentColor" stroke-width="2" stroke-linecap="round" stroke-linejoin="round"/></symbol><symbol fill="none" viewBox="0 0 9 16" id="arrow-left" xmlns="http://www.w3.org/2000/svg"><path d="M8 1L1.037 7.963 8 14.926" stroke="currentColor" stroke-width="2" stroke-linecap="round" stroke-linejoin="round"/></symbol><symbol fill="none" viewBox="0 0 9 16" id="arrow-right" xmlns="http://www.w3.org/2000/svg"><path d="M1 1l6.963 6.963L1 14.926" stroke="currentColor" stroke-width="2" stroke-linecap="round" stroke-linejoin="round"/></symbol><symbol fill="none" viewBox="0 0 18 16" id="envelope" xmlns="http://www.w3.org/2000/svg"><path d="M1 4.667a2 2 0 012-2h12a2 2 0 012 2V12a2 2 0 01-2 2H3a2 2 0 01-2-2V4.667z" stroke="#fff" stroke-linejoin="round"/><path d="M2.421 3.97c-.504-.463-.177-1.304.507-1.304h12.144c.684 0 1.01.841.507 1.303l-4.552 4.173a3 3 0 01-4.054 0L2.42 3.969z" stroke="#fff" stroke-linejoin="round"/></symbol><symbol fill="none" viewBox="0 0 24 25" id="marker" xmlns="http://www.w3.org/2000/svg"><path d="M22 11c0 4.056-5.394 9.166-8.259 11.594a2.673 2.673 0 01-3.482 0C7.394 20.166 2 15.056 2 11 2 5.477 6.477 1 12 1s10 4.477 10 10z" fill="url(#paint0_linear)" stroke="#F8F8F8" stroke-width="2"/><circle cx="12" cy="11" stroke="#fff" stroke-width="1.5" r="3"/><defs><linearGradient id="paint0_linear" x1="10.945" y1="1" x2="22.979" y2="26.032" gradientUnits="userSpaceOnUse"><stop stop-color="#6380ED"/><stop offset="1" stop-color="#506FE2"/></linearGradient></defs></symbol><symbol viewBox="0 0 28.7 27.9" id="web2ru" xmlns="http://www.w3.org/2000/svg"><path fill="currentColor" d="M5.5 25.1c1.5 0 2.6-1.2 2.6-2.6 0-.7-.2-1.3-.7-1.8l2.1-4c.2.1.5.1.7.1.6 0 1.2-.2 1.7-.6l2.9 2.4c-.1.3-.2.7-.2 1 0 1.5 1.2 2.6 2.6 2.6 1.5 0 2.6-1.2 2.6-2.6 0-.7-.3-1.4-.9-2l3.3-11.4c1.5 0 2.6-1.2 2.6-2.6 0-1.5-1.2-2.6-2.6-2.6-1.4 0-2.6 1-2.6 2.5 0 .9.5 1.7 1.2 2.2l-3.2 11.2h-.4c-.5 0-1 .2-1.5.5l-3-2.5c.1-.3.1-.5.1-.8 0-1.5-1.2-2.6-2.6-2.6-1.4 0-2.6 1.1-2.6 2.5 0 .6.2 1.3.7 1.7l-2.1 4.1c-.2-.1-.4-.1-.7-.1-1.5 0-2.6 1.2-2.6 2.6 0 1.4 1.1 2.8 2.6 2.8zm-1.2-2.7c0-.6.5-1.1 1.1-1.1.6 0 1.1.5 1.1 1.1 0 .6-.5 1.1-1.1 1.1-.6.1-1.1-.5-1.1-1.1zM9.1 14c0-.6.5-1.1 1.1-1.1.6 0 1.1.5 1.1 1.1 0 .6-.5 1.1-1.1 1.1-.6 0-1.1-.4-1.1-1.1zm7 5.5c0-.6.5-1.1 1.1-1.1.6 0 1.1.5 1.1 1.1 0 .6-.5 1.1-1.1 1.1-.6.1-1.1-.4-1.1-1.1zm5-16c0-.6.5-1.1 1.1-1.1.6 0 1.1.5 1.1 1.1 0 .6-.5 1.1-1.1 1.1-.6 0-1.1-.5-1.1-1.1zm7.4 22.9h-.2l-4.5-1.8-.4-.2v2H1.5V5.3h2.1l-.2-.4L1.5.2V0H0v27.9h28.7v-1.5h-.2z"/></symbol><symbol fill="none" viewBox="0 0 18 13" id="youtube" xmlns="http://www.w3.org/2000/svg"><path fill-rule="evenodd" clip-rule="evenodd" d="M15.668.5a2.167 2.167 0 011.509 1.549c.357 1.366.357 4.218.357 4.218s0 2.85-.357 4.218a2.167 2.167 0 01-1.51 1.549C14.338 12.4 9 12.4 9 12.4s-5.337 0-6.668-.366a2.167 2.167 0 01-1.509-1.55C.467 9.119.467 6.268.467 6.268s0-2.852.356-4.218a2.167 2.167 0 011.51-1.55C3.662.134 9 .134 9 .134s5.337 0 6.668.367zM7.4 3.867V9.2l4.267-2.667L7.4 3.867z" fill="currentColor"/></symbol></svg>