<svg width="577" height="556" viewBox="0 0 577 556" fill="none" xmlns="http://www.w3.org/2000/svg"><rect x="265.525" y="42.826" width="60.955" height="270.243" rx="30.477" transform="rotate(38.685 265.525 42.826)" fill="url(#paint0_linear)"/><rect x="269.2" y="152.771" width="60.955" height="131.534" rx="30.477" transform="rotate(38.685 269.2 152.771)" fill="url(#paint1_linear)"/><rect x="154.642" y="71.954" width="60.955" height="131.534" rx="30.477" transform="rotate(38.685 154.642 71.954)" fill="url(#paint2_linear)"/><rect x="357.59" y="156.438" width="60.955" height="131.534" rx="30.477" transform="rotate(38.685 357.59 156.438)" fill="url(#paint3_linear)"/><rect x="304.881" y="507.271" width="60.955" height="270.243" rx="30.477" transform="rotate(-139.139 304.881 507.271)" fill="url(#paint4_linear)"/><rect x="305.383" y="397.265" width="60.955" height="131.534" rx="30.477" transform="rotate(-139.139 305.383 397.265)" fill="url(#paint5_linear)"/><rect x="416.791" y="482.374" width="60.955" height="131.534" rx="30.477" transform="rotate(-139.139 416.791 482.374)" fill="url(#paint6_linear)"/><rect x="217.196" y="390.245" width="60.955" height="131.534" rx="30.477" transform="rotate(-139.139 217.196 390.245)" fill="url(#paint7_linear)"/><circle cx="391.784" cy="249.57" r="32.082" transform="rotate(-139.139 391.784 249.57)" fill="url(#paint8_linear)"/><g clip-path="url(#clip0)"><path d="M260.665 420.824a10.585 10.585 0 01-9.769 6.513h-.048l-77.338-.353a10.587 10.587 0 01-9.125-5.292l-6.438-11.144-9.212-15.951c-.033-.056-.061-.112-.089-.163a10.595 10.595 0 01-.065-10.474l16.585-29.577c1.901-3.374 5.507-5.429 9.36-5.406l17.842.21 58.253.677a10.587 10.587 0 019.683 6.594 10.57 10.57 0 01-2.321 11.474l-20.46 20.468 20.863 20.863a10.584 10.584 0 012.279 11.561z" fill="#00AF5B"/><path d="M479.579 336.878l-6.642 11.513-9.097 15.753a10.605 10.605 0 01-9.041 5.292l-33.905.417h-.132a10.588 10.588 0 01-9.225-5.398l-8.647-15.381-28.638-50.962a10.59 10.59 0 0111.97-15.414l27.961 7.487 7.638-28.498a10.572 10.572 0 018.865-7.756 10.595 10.595 0 0110.55 5.241l38.365 67.164a10.57 10.57 0 01-.022 10.542z" fill="#008E46"/><path d="M289.113 111.498a10.597 10.597 0 00-9.103-5.177h-31.48a10.588 10.588 0 00-9.145 5.25l-38.973 66.805a10.591 10.591 0 00.731 11.763 10.58 10.58 0 0011.152 3.799l28.501-7.638 7.49 27.958a10.59 10.59 0 0010.228 7.848c3.699 0 7.18-1.943 9.103-5.188l38.816-65.458a10.591 10.591 0 00-.002-10.808l-17.318-29.154z" fill="#00AF5B"/><path d="M250.481 301.018a10.58 10.58 0 01-11.746.77l-14.946-8.624-31.422 56.022-34.42 61.362-9.212-15.951c-.033-.056-.061-.112-.089-.163l-33.228-57.556a10.573 10.573 0 010-10.584l41.448-71.772-15.061-8.694a10.59 10.59 0 012.557-19.396l76.448-20.479c5.639-1.512 11.446 1.834 12.964 7.479l20.482 76.451a10.582 10.582 0 01-3.775 11.135zm222.456 47.373l-9.097 15.753-33.227 57.548a10.588 10.588 0 01-9.168 5.292h-.005l-82.874-.014v17.397c0 4.284-2.582 8.139-6.535 9.783a10.589 10.589 0 01-11.539-2.302l-55.961-55.96c-4.135-4.136-4.135-10.839 0-14.969l55.961-55.966a10.592 10.592 0 0111.539-2.296 10.591 10.591 0 016.535 9.783v17.262l64.324-.627 70.047-.684zm-45.295-161.783l-20.482 76.448c-1.268 4.729-5.547 7.848-10.22 7.848-.91 0-1.825-.12-2.744-.361l-76.448-20.487a10.589 10.589 0 01-7.759-8.843 10.606 10.606 0 015.203-10.553l14.949-8.632-42.325-71.254-26.409-44.456h85.058c3.783 0 7.283 2.019 9.175 5.292l19.494 33.788 21.927 37.998 15.061-8.696a10.584 10.584 0 0115.52 11.908z" fill="#54E360"/><path d="M402.89 349.075l-64.324.627V332.44c0-4.284-2.582-8.145-6.535-9.783a10.592 10.592 0 00-11.539 2.296l-22.993 22.996v80.906l22.993 22.993a10.589 10.589 0 0011.539 2.302 10.598 10.598 0 006.535-9.783V426.97l82.874.014h.006c3.782 0 7.277-2.019 9.167-5.292l33.227-57.548 9.097-15.753-70.047.684zm20.978-173.605a10.58 10.58 0 00-11.746-.77l-15.062 8.696-21.926-37.998-19.494-33.788a10.604 10.604 0 00-9.175-5.292h-48.966v60.757l32.642 54.953-14.949 8.632a10.606 10.606 0 00-5.203 10.553 10.588 10.588 0 007.759 8.843l76.448 20.487c.918.241 1.834.361 2.744.361 4.673 0 8.952-3.119 10.22-7.848l20.482-76.448a10.584 10.584 0 00-3.774-11.138z" fill="#43C949"/></g><defs><linearGradient id="paint0_linear" x1="296.002" y1="42.826" x2="296.002" y2="313.069" gradientUnits="userSpaceOnUse"><stop offset=".281" stop-color="#28274F"/><stop offset="1" stop-color="#1B1A35" stop-opacity="0"/></linearGradient><linearGradient id="paint1_linear" x1="299.677" y1="152.771" x2="299.677" y2="284.306" gradientUnits="userSpaceOnUse"><stop offset=".281" stop-color="#2A2947"/><stop offset="1" stop-color="#1B1A35" stop-opacity="0"/></linearGradient><linearGradient id="paint2_linear" x1="185.119" y1="71.954" x2="185.119" y2="203.488" gradientUnits="userSpaceOnUse"><stop offset=".281" stop-color="#2A2947" stop-opacity=".47"/><stop offset="1" stop-color="#1B1A35" stop-opacity="0"/></linearGradient><linearGradient id="paint3_linear" x1="388.068" y1="156.438" x2="388.068" y2="287.972" gradientUnits="userSpaceOnUse"><stop offset=".281" stop-color="#2A2947"/><stop offset="1" stop-color="#1B1A35" stop-opacity="0"/></linearGradient><linearGradient id="paint4_linear" x1="335.358" y1="507.271" x2="335.358" y2="777.513" gradientUnits="userSpaceOnUse"><stop offset=".281" stop-color="#28274F"/><stop offset="1" stop-color="#1B1A35" stop-opacity="0"/></linearGradient><linearGradient id="paint5_linear" x1="335.861" y1="397.265" x2="335.861" y2="528.799" gradientUnits="userSpaceOnUse"><stop offset=".281" stop-color="#2A2947"/><stop offset="1" stop-color="#1B1A35" stop-opacity="0"/></linearGradient><linearGradient id="paint6_linear" x1="447.268" y1="482.374" x2="447.268" y2="613.908" gradientUnits="userSpaceOnUse"><stop offset=".281" stop-color="#2A2947" stop-opacity=".52"/><stop offset="1" stop-color="#1B1A35" stop-opacity="0"/></linearGradient><linearGradient id="paint7_linear" x1="247.673" y1="390.245" x2="247.673" y2="521.779" gradientUnits="userSpaceOnUse"><stop offset=".281" stop-color="#2A2947"/><stop offset="1" stop-color="#1B1A35" stop-opacity="0"/></linearGradient><linearGradient id="paint8_linear" x1="391.784" y1="217.489" x2="391.784" y2="281.652" gradientUnits="userSpaceOnUse"><stop offset=".281" stop-color="#2A2947"/><stop offset="1" stop-color="#1B1A35" stop-opacity="0"/></linearGradient><clipPath id="clip0"><path fill="#fff" transform="translate(113.999 97)" d="M0 0h367v367H0z"/></clipPath></defs></svg>