<svg width="1287" height="572" viewBox="0 0 1287 572" fill="none" xmlns="http://www.w3.org/2000/svg"><path d="M1287 803.5c0 179.694-73.65 342.19-192.42 458.93C978.455 1376.58 819.201 1447 643.5 1447 288.105 1447 0 1158.9 0 803.5 0 448.105 288.105 160 643.5 160S1287 448.105 1287 803.5z" fill="url(#paint0_linear)"/><rect x="843" y="284.838" width="97.975" height="211.42" rx="48.988" transform="rotate(-26.58 843 284.838)" fill="url(#paint1_linear)"/><circle cx="287.613" cy="500.754" r="51.566" transform="rotate(30.535 287.613 500.754)" fill="url(#paint2_linear)"/><circle r="150.107" transform="scale(-1 1) rotate(30.535 -1197.664 -944.358)" fill="url(#paint3_linear)"/><circle r="51.73" transform="scale(-1 1) rotate(30.535 -1634.716 -1728.43)" fill="url(#paint4_linear)"/><defs><linearGradient id="paint0_linear" x1="1287" y1="936.616" x2="434.678" y2="1382.02" gradientUnits="userSpaceOnUse"><stop stop-color="#5471E1"/><stop offset="1" stop-color="#4661CB"/></linearGradient><linearGradient id="paint1_linear" x1="891.988" y1="284.838" x2="891.988" y2="496.258" gradientUnits="userSpaceOnUse"><stop offset=".281" stop-color="#5775E8"/><stop offset="1" stop-color="#4661CB" stop-opacity=".32"/></linearGradient><linearGradient id="paint2_linear" x1="287.613" y1="449.188" x2="287.613" y2="552.32" gradientUnits="userSpaceOnUse"><stop offset=".281" stop-color="#5775E8"/><stop offset="1" stop-color="#4661CB" stop-opacity=".32"/></linearGradient><linearGradient id="paint3_linear" x1="150.107" y1="0" x2="150.107" y2="300.214" gradientUnits="userSpaceOnUse"><stop offset=".281" stop-color="#5775E8"/><stop offset="1" stop-color="#4661CB" stop-opacity=".32"/></linearGradient><linearGradient id="paint4_linear" x1="51.73" y1="0" x2="51.73" y2="103.459" gradientUnits="userSpaceOnUse"><stop offset=".281" stop-color="#5775E8"/><stop offset="1" stop-color="#4661CB" stop-opacity=".32"/></linearGradient></defs></svg>