<svg width="47" height="47" viewBox="0 0 47 47" fill="none" xmlns="http://www.w3.org/2000/svg"><path d="M40.654 7.782h4.02a.862.862 0 000-1.723H38.93a.862.862 0 00-.862.862v5.742a.862.862 0 001.723 0V9.396a21.03 21.03 0 015.169 13.891A21.247 21.247 0 1123.713 2.04a.862.862 0 000-1.723 22.97 22.97 0 1022.97 22.97 22.735 22.735 0 00-6.03-15.505z" fill="#5C80FF"/><path d="M8.208 23.574A15.792 15.792 0 1024 7.782 15.81 15.81 0 008.208 23.574zm29.861 0A14.07 14.07 0 1124 9.504a14.086 14.086 0 0114.07 14.07z" fill="#fff"/><path d="M23.139 13.812v9.762a.86.86 0 001.47.609l7.465-7.465a.861.861 0 00-1.217-1.218l-5.996 5.995v-7.683a.861.861 0 10-1.722 0z" fill="#fff"/></svg>