<svg width="37" height="52" viewBox="0 0 37 52" fill="none" xmlns="http://www.w3.org/2000/svg"><path d="M36.69 18.714C36.756 8.666 28.633.438 18.586.374 8.523.313.309 8.431.244 18.48c-.047 7.267 4.19 13.58 10.34 16.543l.059 15.874a.85.85 0 00.852.849.855.855 0 00.589-.236l6.297-6.015 6.34 5.973a.853.853 0 001.435-.623l-.054-15.707c6.207-2.877 10.542-9.143 10.589-16.424zM24.446 48.868l-5.485-5.167a.851.851 0 00-1.172.004l-5.449 5.204-.049-13.17a18.131 18.131 0 006.06 1.081h.119c2.075 0 4.07-.353 5.93-.996l.046 13.044zM18.47 35.117h-.108C9.252 35.056 1.89 27.6 1.95 18.49 2.007 9.417 9.406 2.077 18.466 2.077h.108c9.108.059 16.471 7.517 16.413 16.626-.058 9.073-7.458 16.414-16.518 16.414z" fill="#fff"/><path d="M26.75 15.979l-5.18-.786-2.287-4.711a.852.852 0 00-.76-.48h-.006a.852.852 0 00-.761.47l-2.347 4.681-5.188.72a.852.852 0 00-.481 1.45l3.727 3.68-.918 5.156a.852.852 0 001.23.906l4.65-2.407 4.622 2.466a.854.854 0 00.897-.059.851.851 0 00.345-.83l-.852-5.168 3.773-3.633a.854.854 0 00.222-.872.855.855 0 00-.686-.583zm-4.814 4.171a.852.852 0 00-.25.753l.644 3.906-3.494-1.866a.852.852 0 00-.792-.005l-3.515 1.82.693-3.898a.85.85 0 00-.24-.755l-2.817-2.782 3.922-.544a.852.852 0 00.644-.462l1.774-3.538 1.729 3.56a.854.854 0 00.639.471l3.916.594-2.853 2.746z" fill="#5C80FF"/></svg>