<svg width="54" height="54" viewBox="0 0 54 54" fill="none" xmlns="http://www.w3.org/2000/svg"><path d="M35.178 20.098l-17.516 13.92c-.348.29-.464.87-.116 1.218a.827.827 0 00.696.348c.174 0 .406-.058.522-.174L36.28 21.49c.348-.29.464-.87.116-1.218-.29-.406-.812-.464-1.218-.174zM22.36 26.304c.232 0 .464 0 .696-.058 2.378-.348 4.06-2.61 3.654-5.046a4.473 4.473 0 00-1.74-2.9 4.319 4.319 0 00-3.248-.812 4.473 4.473 0 00-2.9 1.74 4.319 4.319 0 00-.812 3.248c.348 2.262 2.262 3.828 4.35 3.828zm-.406-7.018c.116 0 .29-.058.406-.058 1.276 0 2.436.928 2.61 2.262a2.63 2.63 0 01-2.204 3.016 2.63 2.63 0 01-3.016-2.204c-.232-1.45.812-2.784 2.204-3.016zm9.686 9.918a4.406 4.406 0 00-4.408 4.408 4.406 4.406 0 004.408 4.408 4.406 4.406 0 004.408-4.408c-.058-2.436-2.03-4.408-4.408-4.408zm0 7.018c-1.45 0-2.668-1.218-2.668-2.668 0-1.45 1.218-2.668 2.668-2.668 1.45 0 2.668 1.218 2.668 2.668-.058 1.508-1.218 2.668-2.668 2.668z" fill="#5C80FF"/><path d="M53.332 27.174c0-.058.058-.174.058-.232 0-2.494-2.61-3.77-4.872-4.872-1.624-.812-3.364-1.682-3.828-2.726-.464-1.102.174-2.9.812-4.582.87-2.378 1.74-4.814.116-6.438-1.624-1.624-3.944-1.044-6.264-.522-1.624.348-3.306.754-4.408.29-1.102-.464-2.03-1.914-2.9-3.306C30.77 2.814 29.378.552 26.942.552s-3.828 2.262-5.046 4.292c-.87 1.45-1.74 2.9-2.842 3.364-1.102.464-2.842.058-4.466-.348-2.32-.58-4.698-1.16-6.264.406-1.624 1.624-.812 4.06-.058 6.438.58 1.74 1.102 3.48.638 4.64-.464 1.102-2.088 1.914-3.654 2.726C3.046 23.23.552 24.506.552 26.942c0 .058 0 .174.058.232 0 .058-.058.174-.058.232 0 2.436 2.494 3.77 4.698 4.872 1.566.812 3.19 1.624 3.654 2.726.464 1.102-.116 2.9-.638 4.64-.754 2.378-1.566 4.814.058 6.438 1.624 1.624 4.002.986 6.264.406 1.624-.406 3.364-.812 4.466-.348 1.102.464 1.972 1.914 2.842 3.364 1.218 2.03 2.61 4.292 5.046 4.292 2.436 0 3.886-2.262 5.104-4.234.87-1.392 1.798-2.842 2.9-3.306 1.16-.464 2.784-.116 4.408.29 2.262.522 4.64 1.102 6.264-.522 1.624-1.624.754-4.06-.116-6.438-.638-1.74-1.276-3.48-.812-4.582.464-1.102 2.146-1.914 3.828-2.726 2.262-1.16 4.872-2.436 4.872-4.872 0-.116-.058-.174-.058-.232zm-5.626 3.538c-1.914.986-3.944 1.972-4.64 3.654-.754 1.74.058 3.828.754 5.858.696 1.914 1.392 3.77.522 4.582-.928.928-2.726.522-4.64.058-1.914-.464-3.828-.87-5.51-.174-1.624.696-2.668 2.32-3.654 3.944-1.102 1.74-2.146 3.422-3.654 3.422-1.45 0-2.494-1.682-3.596-3.48-.986-1.682-2.03-3.364-3.654-4.06-1.682-.696-3.654-.232-5.568.29-1.914.464-3.712.928-4.64.058-.87-.87-.29-2.726.348-4.64.638-2.03 1.334-4.118.58-5.8-.696-1.682-2.61-2.668-4.466-3.596-1.914-.986-3.712-1.914-3.712-3.364 0-.058 0-.174-.058-.232 0-.058.058-.174.058-.232 0-1.392 1.798-2.32 3.712-3.364 1.856-.928 3.77-1.914 4.466-3.596.696-1.74.058-3.828-.58-5.8s-1.218-3.828-.348-4.64c.928-.928 2.726-.464 4.64.058 1.914.464 3.886.986 5.568.29 1.624-.696 2.668-2.378 3.654-4.06 1.102-1.798 2.088-3.48 3.596-3.48s2.552 1.682 3.654 3.422c1.044 1.624 2.088 3.248 3.654 3.944 1.682.696 3.596.232 5.51-.174 1.914-.464 3.712-.87 4.64.058.87.812.174 2.668-.522 4.582-.754 2.03-1.508 4.118-.754 5.858.696 1.682 2.726 2.668 4.64 3.654 2.03.986 3.886 1.972 3.886 3.364 0 .058 0 .174.058.232 0 .058-.058.174-.058.232.058 1.16-1.856 2.146-3.886 3.132z" fill="#fff"/></svg>