<svg width="40" height="48" viewBox="0 0 40 48" fill="none" xmlns="http://www.w3.org/2000/svg"><path d="M38.534 11.375c.75-3.77 1.078-8.644-1.627-10.445-2.704-1.802-7.074.374-10.265 2.519-3.397 2.283-6.975 5.61-8.51 7.91l-1.134 1.702c-1.814-.049-7.565-.131-9.679.732-2.333.954-6.585 5.992-6.79 8.045-.079.789.32 1.18.565 1.344.452.3 1.674.413 3.263.413 1.687 0 3.786-.128 5.82-.296l-.383.575-.002.002-.001.002-3.229 4.846a9.868 9.868 0 00-.08 10.784l-1.345 2.018a3.694 3.694 0 00-.524 2.885 3.97 3.97 0 001.69 2.444 4.002 4.002 0 002.221.675c1.235 0 2.432-.578 3.149-1.652l1.34-2.011a9.88 9.88 0 009.928-4.23l3.871-5.81c1.219 3.772 2.675 7.718 3.606 8.34.146.096.385.211.701.211.218 0 .473-.055.758-.209 1.817-.981 4.826-6.847 4.806-9.366-.014-2.281-2.308-7.559-3.052-9.213l.877-1.317c1.533-2.3 3.227-6.883 4.026-10.898zM27.61 4.888c3.776-2.538 6.894-3.478 8.337-2.515 1.445.962 1.777 4.2.888 8.663-.862 4.328-2.549 8.444-3.77 10.274L25.21 33.103l-9.277-6.18-.015-.012-.018-.01-4.183-2.786 6.438-9.663 1.42-2.133c1.223-1.83 4.374-4.97 8.035-7.431zM2.289 21.796c.391-1.38 3.759-5.61 5.686-6.398 1.387-.566 5.328-.65 7.882-.623l-4.448 6.675c-3.718.338-7.936.535-9.12.346zm5.716 7.89l2.75-4.127 3.478 2.317L7.55 37.904a8.137 8.137 0 01.455-8.219zm2.225 15.229c-.63.943-1.96 1.165-2.966.496a2.247 2.247 0 01-.96-1.38 1.978 1.978 0 01.276-1.544l1.682-2.524.015-.022 7.4-11.104 3.648 2.43-9.095 13.648zm11.269-6.24a8.137 8.137 0 01-7.415 3.584l6.683-10.03 3.48 2.318-2.748 4.127zm13.45-5.86c.016 2.078-2.573 6.791-3.702 7.705-.672-1.094-2.096-5.02-3.203-8.543l4.445-6.674c1.01 2.346 2.45 6.017 2.46 7.512z" fill="#fff"/><path d="M23.482 20.568a6.006 6.006 0 008.326-1.667 6.01 6.01 0 00-1.67-8.325 5.968 5.968 0 00-4.508-.891 5.958 5.958 0 00-3.816 2.556 5.964 5.964 0 00-.892 4.512 5.968 5.968 0 002.56 3.815zm-.224-7.366a4.235 4.235 0 012.713-1.817 4.245 4.245 0 013.207.634 4.275 4.275 0 011.187 5.92 4.275 4.275 0 01-5.922 1.186 4.234 4.234 0 01-1.82-2.714 4.24 4.24 0 01.635-3.209z" fill="#5C80FF"/></svg>